<?xml version="1.0" encoding="utf-8"?>
<!-- Generator: Adobe Illustrator 16.0.3, SVG Export Plug-In . SVG Version: 6.00 Build 0)  -->
<!DOCTYPE svg PUBLIC "-//W3C//DTD SVG 1.1//EN" "http://www.w3.org/Graphics/SVG/1.1/DTD/svg11.dtd" [
	<!ENTITY ns_extend "http://ns.adobe.com/Extensibility/1.0/">
	<!ENTITY ns_ai "http://ns.adobe.com/AdobeIllustrator/10.0/">
	<!ENTITY ns_graphs "http://ns.adobe.com/Graphs/1.0/">
	<!ENTITY ns_vars "http://ns.adobe.com/Variables/1.0/">
	<!ENTITY ns_imrep "http://ns.adobe.com/ImageReplacement/1.0/">
	<!ENTITY ns_sfw "http://ns.adobe.com/SaveForWeb/1.0/">
	<!ENTITY ns_custom "http://ns.adobe.com/GenericCustomNamespace/1.0/">
	<!ENTITY ns_adobe_xpath "http://ns.adobe.com/XPath/1.0/">
]>
<svg version="1.1" xmlns:x="&ns_extend;" xmlns:i="&ns_ai;" xmlns:graph="&ns_graphs;"
	 xmlns="http://www.w3.org/2000/svg" xmlns:xlink="http://www.w3.org/1999/xlink" x="0px" y="0px" width="328.959px"
	 height="98.986px" viewBox="0 0 328.959 98.986" enable-background="new 0 0 328.959 98.986" xml:space="preserve">
<metadata>
	<sfw  xmlns="&ns_sfw;">
		<slices></slices>
		<sliceSourceBounds  width="173.175" height="52.466" x="435.021" y="279.494" bottomLeftOrigin="true"></sliceSourceBounds>
	</sfw>
</metadata>
<g id="Layer_1" display="none">
	<g display="inline">
		<g>
			<path fill="#77797B" d="M118.636,40.527l-3.37-2.253c-0.042-0.027-0.096-0.029-0.141-0.007c-0.045,0.024-0.073,0.071-0.073,0.122
				v4.095c0,0.045,0.024,0.087,0.063,0.113l3.371,2.253c0.021,0.016,0.049,0.023,0.075,0.023c0.022,0,0.045-0.005,0.065-0.017
				c0.044-0.024,0.072-0.07,0.072-0.122v-4.096C118.696,40.595,118.674,40.553,118.636,40.527"/>
			<path fill="#77797B" d="M118.636,45.717l-3.37-2.253c-0.042-0.027-0.096-0.03-0.141-0.007c-0.045,0.024-0.073,0.07-0.073,0.122
				v4.095c0,0.045,0.024,0.088,0.063,0.114l3.371,2.253c0.021,0.015,0.049,0.021,0.075,0.021c0.022,0,0.045-0.005,0.065-0.016
				c0.044-0.025,0.072-0.07,0.072-0.12V45.83C118.696,45.785,118.674,45.742,118.636,45.717"/>
			<path fill="#77797B" d="M122.683,42.914l-3.371-2.048c-0.043-0.025-0.096-0.026-0.138-0.004c-0.042,0.024-0.07,0.07-0.07,0.12
				v4.096c0,0.046,0.024,0.089,0.061,0.113l3.371,2.254c0.022,0.016,0.05,0.021,0.075,0.021c0.023,0,0.044-0.005,0.065-0.016
				c0.044-0.022,0.072-0.069,0.072-0.119v-4.302C122.748,42.983,122.723,42.938,122.683,42.914"/>
			<path fill="#77797B" d="M122.687,48.312l-3.37-2.253c-0.042-0.027-0.096-0.031-0.14-0.007c-0.044,0.023-0.073,0.07-0.073,0.12
				v4.097c0,0.045,0.023,0.088,0.061,0.113l3.371,2.253c0.022,0.015,0.05,0.022,0.075,0.022c0.023,0,0.044-0.006,0.065-0.016
				c0.044-0.024,0.071-0.069,0.071-0.122v-4.095C122.747,48.379,122.725,48.337,122.687,48.312"/>
			<path fill="#77797B" d="M130.777,38.269c-0.043-0.023-0.097-0.022-0.139,0.004l-3.453,2.186
				c-0.041,0.024-0.064,0.069-0.063,0.118l0.082,4.164c0.001,0.049,0.028,0.096,0.073,0.118c0.02,0.012,0.042,0.017,0.063,0.017
				c0.027,0,0.053-0.008,0.076-0.023l3.371-2.253c0.038-0.025,0.062-0.066,0.062-0.113v-4.097
				C130.849,38.339,130.82,38.292,130.777,38.269"/>
			<path fill="#77797B" d="M130.775,43.457c-0.044-0.023-0.099-0.021-0.14,0.007l-3.371,2.253c-0.038,0.025-0.061,0.068-0.061,0.113
				v4.096c0,0.05,0.028,0.096,0.072,0.121c0.02,0.01,0.042,0.016,0.064,0.016c0.027,0,0.054-0.008,0.076-0.021l3.371-2.254
				c0.038-0.025,0.062-0.067,0.062-0.113v-4.095C130.849,43.527,130.819,43.481,130.775,43.457"/>
			<path fill="#77797B" d="M126.727,40.865c-0.043-0.024-0.096-0.023-0.138,0.002l-3.371,2.049
				c-0.041,0.023-0.065,0.068-0.065,0.116v4.301c0,0.05,0.027,0.096,0.072,0.119c0.02,0.012,0.042,0.017,0.064,0.017
				c0.026,0,0.053-0.007,0.076-0.022l3.371-2.253c0.038-0.025,0.061-0.067,0.061-0.114v-4.096
				C126.797,40.933,126.771,40.887,126.727,40.865"/>
			<path fill="#77797B" d="M122.448,38.046c0.001-0.049-0.025-0.095-0.067-0.121l-3.164-1.878c-0.039-0.023-0.088-0.024-0.129-0.004
				l-3.529,1.752c-0.044,0.021-0.073,0.065-0.075,0.116c-0.004,0.048,0.021,0.095,0.062,0.122l3.153,2.006
				c0.021,0.014,0.047,0.021,0.073,0.021c0.021,0,0.043-0.005,0.064-0.017l3.539-1.878
				C122.418,38.141,122.446,38.096,122.448,38.046"/>
			<path fill="#77797B" d="M119.688,36.019l3.091,1.8c0.021,0.015,0.045,0.021,0.068,0.021c0.024,0,0.046-0.006,0.065-0.017
				l3.334-1.812c0.045-0.024,0.073-0.072,0.072-0.122c-0.001-0.051-0.03-0.098-0.076-0.119l-3.095-1.538
				c-0.037-0.02-0.08-0.02-0.119-0.002l-3.331,1.547c-0.046,0.021-0.076,0.066-0.078,0.118
				C119.618,35.946,119.644,35.994,119.688,36.019"/>
			<path fill="#77797B" d="M126.318,40.371c-0.001-0.049-0.028-0.096-0.072-0.118l-3.332-1.778
				c-0.041-0.021-0.088-0.021-0.129,0.001l-3.299,1.787c-0.042,0.024-0.071,0.069-0.071,0.12c0,0.049,0.027,0.096,0.07,0.119
				l3.35,1.869c0.021,0.012,0.043,0.018,0.066,0.018c0.024,0,0.048-0.005,0.069-0.019l3.28-1.879
				C126.293,40.466,126.319,40.421,126.318,40.371"/>
			<path fill="#F26722" d="M132.247,31.958c-0.028-0.04-0.077-0.062-0.127-0.057l-3.754,0.406c-0.045,0.005-0.085,0.033-0.106,0.072
				l-1.721,3.334c-0.022,0.044-0.02,0.098,0.008,0.139c0.026,0.039,0.068,0.061,0.114,0.061c0.004,0,0.008,0,0.012-0.001l3.822-0.34
				c0.046-0.006,0.089-0.032,0.111-0.076l1.653-3.399C132.28,32.053,132.275,32,132.247,31.958"/>
			<path fill="#77797B" d="M126.724,46.052c-0.045-0.025-0.098-0.021-0.14,0.006l-3.37,2.253c-0.039,0.024-0.061,0.068-0.061,0.114
				v4.095c0,0.05,0.027,0.098,0.072,0.122c0.02,0.01,0.042,0.016,0.064,0.016c0.026,0,0.053-0.008,0.076-0.022l3.371-2.253
				c0.038-0.026,0.061-0.069,0.061-0.114v-4.097C126.797,46.121,126.769,46.075,126.724,46.052"/>
		</g>
		<g>
			<path fill="#58595B" d="M33.549,26.479l-6.817,24.876h-4.667L17.33,33.956c-0.196-0.74-0.318-1.549-0.364-2.429h-0.069
				c-0.058,0.821-0.196,1.619-0.416,2.395l-4.753,17.434H6.956L0,26.479h4.528l4.51,18.215c0.185,0.764,0.3,1.562,0.347,2.395h0.087
				c0.046-0.59,0.208-1.388,0.485-2.395l5.1-18.215h4.25l4.719,18.354c0.162,0.625,0.283,1.365,0.364,2.22h0.069
				c0.035-0.578,0.167-1.341,0.399-2.29l4.423-18.284H33.549z"/>
			<path fill="#58595B" d="M43.538,51.772c-2.741,0-4.93-0.83-6.566-2.489c-1.637-1.659-2.455-3.859-2.455-6.602
				c0-2.982,0.853-5.313,2.559-6.991c1.706-1.677,4.004-2.515,6.896-2.515c2.775,0,4.938,0.815,6.488,2.446s2.325,3.892,2.325,6.782
				c0,2.833-0.836,5.104-2.507,6.81C48.606,50.919,46.36,51.772,43.538,51.772z M43.729,36.385c-1.573,0-2.816,0.549-3.729,1.648
				c-0.913,1.099-1.37,2.613-1.37,4.545c0,1.861,0.462,3.328,1.388,4.396c0.925,1.07,2.163,1.605,3.712,1.605
				c1.584,0,2.802-0.526,3.652-1.579c0.85-1.053,1.275-2.55,1.275-4.493c0-1.954-0.425-3.463-1.275-4.527
				C46.532,36.917,45.313,36.385,43.729,36.385z"/>
			<path fill="#58595B" d="M67.182,37.426c-0.486-0.382-1.186-0.573-2.099-0.573c-1.191,0-2.186,0.538-2.983,1.613
				c-0.798,1.076-1.197,2.539-1.197,4.389v8.5h-4.024V33.592h4.024v3.661h0.069c0.394-1.249,0.998-2.225,1.813-2.923
				c0.815-0.699,1.726-1.049,2.732-1.049c0.729,0,1.284,0.109,1.666,0.329L67.182,37.426L67.182,37.426z"/>
			<path fill="#58595B" d="M74.069,51.355h-4.042V25.057h4.042V51.355z"/>
			<path fill="#58595B" d="M95.458,51.355h-4.024v-3.019h-0.07c-1.295,2.29-3.29,3.435-5.984,3.435
				c-2.186,0-3.935-0.795-5.248-2.385s-1.969-3.756-1.969-6.497c0-2.938,0.726-5.291,2.177-7.061
				c1.452-1.77,3.386-2.654,5.803-2.654c2.394,0,4.134,0.96,5.221,2.879h0.07V25.057h4.024V51.355z M91.485,43.237v-2.323
				c0-1.262-0.411-2.331-1.231-3.209c-0.821-0.879-1.868-1.318-3.14-1.318c-1.503,0-2.686,0.562-3.547,1.683
				c-0.861,1.122-1.292,2.678-1.292,4.667c0,1.805,0.414,3.229,1.241,4.276c0.827,1.047,1.94,1.57,3.339,1.57
				c1.376,0,2.492-0.506,3.348-1.519C91.059,46.052,91.485,44.775,91.485,43.237z"/>
			<path fill="#58595B" d="M99.604,50.8v-3.729c1.503,1.146,3.163,1.718,4.979,1.718c2.429,0,3.643-0.718,3.643-2.151
				c0-0.405-0.104-0.749-0.313-1.032c-0.209-0.282-0.488-0.535-0.841-0.755s-0.769-0.416-1.249-0.59
				c-0.48-0.173-1.015-0.37-1.604-0.589c-0.729-0.29-1.385-0.596-1.969-0.919c-0.584-0.324-1.07-0.691-1.458-1.103
				c-0.387-0.41-0.679-0.876-0.876-1.396c-0.196-0.521-0.295-1.128-0.295-1.822c0-0.854,0.203-1.609,0.607-2.264
				s0.948-1.203,1.63-1.648c0.683-0.444,1.458-0.78,2.325-1.006c0.867-0.225,1.764-0.338,2.689-0.338
				c1.642,0,3.111,0.249,4.406,0.746v3.521c-1.249-0.854-2.683-1.283-4.302-1.283c-0.509,0-0.969,0.052-1.379,0.155
				c-0.41,0.104-0.76,0.249-1.049,0.435c-0.289,0.185-0.515,0.408-0.677,0.668s-0.243,0.546-0.243,0.858
				c0,0.382,0.081,0.705,0.243,0.972c0.162,0.266,0.402,0.5,0.72,0.703c0.318,0.201,0.7,0.387,1.145,0.555
				c0.445,0.167,0.957,0.35,1.535,0.546c0.763,0.312,1.448,0.63,2.056,0.954c0.607,0.324,1.125,0.69,1.552,1.102
				c0.428,0.411,0.758,0.886,0.989,1.422c0.231,0.538,0.347,1.178,0.347,1.917c0,0.902-0.208,1.688-0.625,2.359
				c-0.417,0.67-0.972,1.227-1.666,1.665c-0.694,0.439-1.495,0.766-2.402,0.98c-0.908,0.214-1.865,0.32-2.871,0.32
				C102.709,51.772,101.026,51.448,99.604,50.8z"/>
		</g>
		<g>
			<path fill="#58595B" d="M145.593,28.336c-0.544-0.313-1.163-0.469-1.856-0.469c-1.954,0-2.932,1.104-2.932,3.313v2.411h4.129
				v3.157h-4.111v14.605h-4.025V36.749h-3.036v-3.157h3.036v-2.879c0-1.874,0.613-3.352,1.839-4.432
				c1.226-1.082,2.758-1.622,4.597-1.622c0.995,0,1.781,0.109,2.359,0.33V28.336z"/>
			<path fill="#58595B" d="M157.803,51.165c-0.787,0.393-1.822,0.59-3.104,0.59c-3.446,0-5.169-1.654-5.169-4.961V36.749h-2.966
				v-3.157h2.966V29.48l4.025-1.145v5.256h4.25v3.157h-4.25v8.882c0,1.052,0.19,1.804,0.572,2.255s1.018,0.676,1.908,0.676
				c0.682,0,1.272-0.196,1.77-0.59v3.194H157.803z"/>
		</g>
		<g>
			<path fill="#F26522" d="M52.991,60.105h-0.783v-0.587h-0.013c-0.252,0.445-0.64,0.668-1.164,0.668
				c-0.425,0-0.765-0.154-1.02-0.463c-0.255-0.31-0.383-0.729-0.383-1.264c0-0.571,0.141-1.029,0.423-1.373
				c0.282-0.344,0.658-0.517,1.128-0.517c0.466,0,0.804,0.188,1.016,0.561h0.013v-2.138h0.783V60.105z M52.219,58.527v-0.451
				c0-0.246-0.08-0.453-0.239-0.624c-0.16-0.171-0.364-0.257-0.611-0.257c-0.292,0-0.522,0.109-0.689,0.327
				c-0.167,0.219-0.251,0.521-0.251,0.907c0,0.352,0.081,0.628,0.241,0.831c0.161,0.204,0.377,0.306,0.65,0.306
				c0.267,0,0.484-0.098,0.651-0.295C52.135,59.074,52.219,58.826,52.219,58.527z"/>
			<path fill="#F26522" d="M56.938,58.591h-2.354c0.009,0.319,0.108,0.565,0.295,0.738c0.188,0.173,0.446,0.26,0.774,0.26
				c0.369,0,0.708-0.11,1.016-0.331v0.631c-0.315,0.198-0.731,0.297-1.248,0.297c-0.508,0-0.907-0.157-1.196-0.47
				c-0.289-0.314-0.433-0.755-0.433-1.324c0-0.537,0.159-0.975,0.478-1.313c0.318-0.339,0.713-0.509,1.186-0.509
				s0.837,0.152,1.096,0.455c0.259,0.305,0.388,0.727,0.388,1.266v0.3H56.938z M56.182,58.038c-0.002-0.281-0.068-0.5-0.199-0.656
				c-0.13-0.157-0.31-0.235-0.54-0.235c-0.225,0-0.416,0.082-0.572,0.246c-0.156,0.165-0.252,0.379-0.289,0.646H56.182z"/>
			<path fill="#F26522" d="M58.469,60.105h-0.786v-5.112h0.786V60.105z"/>
			<path fill="#F26522" d="M59.882,55.926c-0.128,0-0.238-0.042-0.329-0.125c-0.092-0.083-0.137-0.189-0.137-0.317
				s0.045-0.234,0.137-0.319c0.09-0.085,0.2-0.128,0.329-0.128c0.132,0,0.245,0.042,0.337,0.128
				c0.092,0.085,0.138,0.191,0.138,0.319c0,0.122-0.046,0.227-0.138,0.313C60.127,55.883,60.015,55.926,59.882,55.926z
				 M60.27,60.105h-0.782v-3.454h0.782V60.105z"/>
			<path fill="#F26522" d="M64.267,56.652l-1.335,3.454h-0.847l-1.271-3.454h0.85l0.766,2.415c0.058,0.179,0.094,0.333,0.108,0.466
				h0.01c0.021-0.166,0.052-0.317,0.095-0.452l0.803-2.429H64.267z"/>
			<path fill="#F26522" d="M67.673,58.591h-2.354c0.009,0.319,0.107,0.565,0.295,0.738c0.188,0.173,0.446,0.26,0.774,0.26
				c0.369,0,0.707-0.11,1.015-0.331v0.631c-0.315,0.198-0.731,0.297-1.248,0.297c-0.508,0-0.907-0.157-1.196-0.47
				c-0.289-0.314-0.434-0.755-0.434-1.324c0-0.537,0.159-0.975,0.478-1.313c0.318-0.339,0.713-0.509,1.186-0.509
				s0.837,0.152,1.096,0.455c0.259,0.305,0.388,0.727,0.388,1.266V58.591z M66.917,58.038c-0.002-0.281-0.068-0.5-0.199-0.656
				c-0.131-0.157-0.311-0.235-0.54-0.235c-0.225,0-0.415,0.082-0.572,0.246c-0.156,0.165-0.252,0.379-0.288,0.646H66.917z"/>
			<path fill="#F26522" d="M70.422,57.397c-0.095-0.073-0.23-0.11-0.408-0.11c-0.232,0-0.425,0.104-0.58,0.313
				c-0.155,0.209-0.233,0.493-0.233,0.854v1.652h-0.783v-3.454h0.783v0.711h0.014c0.076-0.242,0.194-0.432,0.352-0.567
				c0.159-0.137,0.336-0.205,0.531-0.205c0.142,0,0.25,0.021,0.324,0.063V57.397z"/>
			<path fill="#F26522" d="M71.37,55.926c-0.128,0-0.238-0.042-0.329-0.125c-0.092-0.083-0.137-0.189-0.137-0.317
				s0.045-0.234,0.137-0.319c0.09-0.085,0.2-0.128,0.329-0.128c0.132,0,0.245,0.042,0.337,0.128
				c0.092,0.085,0.138,0.191,0.138,0.319c0,0.122-0.046,0.227-0.138,0.313C71.615,55.883,71.502,55.926,71.37,55.926z
				 M71.758,60.105h-0.783v-3.454h0.783V60.105z"/>
			<path fill="#F26522" d="M75.856,60.105h-0.782v-1.945c0-0.646-0.229-0.969-0.685-0.969c-0.238,0-0.435,0.09-0.59,0.269
				c-0.155,0.179-0.232,0.403-0.232,0.676v1.97H72.78v-3.454h0.786v0.573h0.013c0.259-0.436,0.632-0.654,1.12-0.654
				c0.375,0,0.662,0.122,0.86,0.366c0.198,0.244,0.297,0.597,0.297,1.058V60.105z"/>
			<path fill="#F26522" d="M79.955,59.829c0,1.268-0.638,1.901-1.913,1.901c-0.45,0-0.842-0.074-1.177-0.226V60.79
				c0.378,0.216,0.736,0.324,1.076,0.324c0.82,0,1.231-0.404,1.231-1.212v-0.378h-0.014c-0.259,0.441-0.647,0.661-1.167,0.661
				c-0.42,0-0.759-0.152-1.017-0.46c-0.257-0.307-0.386-0.719-0.386-1.235c0-0.588,0.139-1.054,0.415-1.399
				c0.277-0.347,0.657-0.521,1.14-0.521c0.457,0,0.795,0.188,1.015,0.561h0.014v-0.479h0.783V59.829L79.955,59.829z M79.179,58.523
				v-0.447c0-0.243-0.081-0.45-0.242-0.623c-0.16-0.173-0.361-0.259-0.602-0.259c-0.297,0-0.529,0.109-0.696,0.329
				c-0.168,0.22-0.251,0.525-0.251,0.919c0,0.34,0.08,0.611,0.241,0.814c0.161,0.204,0.374,0.305,0.64,0.305
				c0.27,0,0.489-0.097,0.658-0.292C79.094,59.076,79.179,58.827,79.179,58.523z"/>
			<path fill="#F26522" d="M84.403,60.187c-0.533,0-0.958-0.161-1.276-0.483c-0.318-0.323-0.478-0.75-0.478-1.284
				c0-0.58,0.166-1.033,0.498-1.359c0.331-0.326,0.778-0.489,1.34-0.489c0.54,0,0.96,0.158,1.262,0.477
				c0.301,0.317,0.452,0.756,0.452,1.319c0,0.551-0.162,0.991-0.487,1.323C85.389,60.021,84.952,60.187,84.403,60.187z
				 M84.44,57.195c-0.306,0-0.547,0.107-0.725,0.32c-0.178,0.213-0.267,0.508-0.267,0.884c0,0.362,0.09,0.647,0.27,0.855
				c0.18,0.208,0.42,0.312,0.722,0.312c0.308,0,0.544-0.102,0.71-0.307c0.165-0.205,0.248-0.496,0.248-0.874
				c0-0.38-0.083-0.673-0.248-0.88S84.749,57.195,84.44,57.195z"/>
			<path fill="#F26522" d="M90.009,60.105h-0.782v-0.546h-0.014c-0.227,0.418-0.58,0.627-1.059,0.627
				c-0.816,0-1.225-0.49-1.225-1.471v-2.064h0.783v1.983c0,0.621,0.24,0.931,0.718,0.931c0.232,0,0.422-0.085,0.572-0.256
				s0.225-0.395,0.225-0.671v-1.986h0.782V60.105z"/>
			<path fill="#F26522" d="M92.85,60.068c-0.153,0.077-0.354,0.115-0.604,0.115c-0.67,0-1.005-0.321-1.005-0.964v-1.953h-0.577
				v-0.614h0.577v-0.8l0.783-0.223v1.021h0.826v0.614h-0.826v1.728c0,0.205,0.037,0.351,0.111,0.438
				c0.074,0.087,0.198,0.131,0.371,0.131c0.133,0,0.248-0.038,0.344-0.115V60.068z"/>
			<path fill="#F26522" d="M96.955,60.187c-0.533,0-0.958-0.161-1.276-0.483c-0.318-0.323-0.478-0.75-0.478-1.284
				c0-0.58,0.166-1.033,0.498-1.359s0.778-0.489,1.341-0.489c0.54,0,0.96,0.158,1.261,0.477c0.301,0.317,0.452,0.756,0.452,1.319
				c0,0.551-0.163,0.991-0.488,1.323C97.94,60.021,97.503,60.187,96.955,60.187z M96.992,57.195c-0.306,0-0.547,0.107-0.725,0.32
				C96.089,57.728,96,58.023,96,58.399c0,0.362,0.09,0.647,0.27,0.855s0.42,0.312,0.722,0.312c0.308,0,0.544-0.102,0.71-0.307
				c0.165-0.205,0.248-0.496,0.248-0.874c0-0.38-0.083-0.673-0.248-0.88C97.536,57.298,97.3,57.195,96.992,57.195z"/>
			<path fill="#F26522" d="M101.398,55.629c-0.105-0.062-0.226-0.091-0.361-0.091c-0.38,0-0.57,0.215-0.57,0.644v0.469h0.803v0.614
				h-0.799v2.84h-0.783v-2.84h-0.59v-0.614h0.59v-0.56c0-0.364,0.119-0.651,0.358-0.862c0.238-0.21,0.536-0.314,0.894-0.314
				c0.193,0,0.347,0.021,0.459,0.063L101.398,55.629L101.398,55.629z"/>
			<path fill="#F26522" d="M105.547,60.068c-0.153,0.077-0.354,0.115-0.604,0.115c-0.67,0-1.005-0.321-1.005-0.964v-1.953h-0.577
				v-0.614h0.577v-0.8l0.782-0.223v1.021h0.827v0.614h-0.827v1.728c0,0.205,0.037,0.351,0.111,0.438
				c0.074,0.087,0.198,0.131,0.371,0.131c0.132,0,0.247-0.038,0.344-0.115L105.547,60.068L105.547,60.068z"/>
			<path fill="#F26522" d="M109.291,60.105h-0.783v-1.889c0-0.684-0.229-1.025-0.685-1.025c-0.229,0-0.423,0.1-0.581,0.297
				c-0.157,0.198-0.236,0.451-0.236,0.76v1.857h-0.786v-5.112h0.786v2.232h0.014c0.26-0.436,0.634-0.654,1.12-0.654
				c0.767,0,1.15,0.47,1.15,1.406L109.291,60.105L109.291,60.105z"/>
			<path fill="#F26522" d="M113.167,58.591h-2.354c0.009,0.319,0.107,0.565,0.295,0.738s0.446,0.26,0.774,0.26
				c0.369,0,0.708-0.11,1.015-0.331v0.631c-0.314,0.198-0.731,0.297-1.248,0.297c-0.508,0-0.907-0.157-1.196-0.47
				c-0.289-0.314-0.433-0.755-0.433-1.324c0-0.537,0.159-0.975,0.478-1.313c0.318-0.339,0.713-0.509,1.185-0.509
				c0.473,0,0.838,0.152,1.096,0.455c0.259,0.305,0.388,0.727,0.388,1.266V58.591z M112.411,58.038
				c-0.002-0.281-0.069-0.5-0.199-0.656c-0.131-0.157-0.311-0.235-0.54-0.235c-0.225,0-0.416,0.082-0.572,0.246
				c-0.156,0.165-0.252,0.379-0.288,0.646H112.411z"/>
			<path fill="#F26522" d="M116.607,59.606h-0.014v0.499h-0.782v-5.112h0.782v2.267h0.014c0.268-0.459,0.659-0.688,1.174-0.688
				c0.436,0,0.777,0.155,1.024,0.464c0.246,0.31,0.369,0.724,0.369,1.242c0,0.578-0.138,1.041-0.415,1.389
				c-0.276,0.348-0.654,0.521-1.133,0.521C117.176,60.187,116.836,59.993,116.607,59.606z M116.587,58.233v0.43
				c0,0.252,0.08,0.465,0.241,0.641c0.161,0.175,0.365,0.263,0.612,0.263c0.29,0,0.518-0.112,0.684-0.339
				c0.165-0.226,0.248-0.541,0.248-0.945c0-0.341-0.077-0.605-0.231-0.798c-0.154-0.192-0.362-0.289-0.625-0.289
				c-0.279,0-0.503,0.1-0.672,0.298C116.671,57.689,116.587,57.937,116.587,58.233z"/>
			<path fill="#F26522" d="M121.505,60.187c-0.533,0-0.958-0.161-1.277-0.483c-0.319-0.323-0.478-0.75-0.478-1.284
				c0-0.58,0.166-1.033,0.498-1.359s0.778-0.489,1.34-0.489c0.54,0,0.96,0.158,1.262,0.477c0.301,0.317,0.452,0.756,0.452,1.319
				c0,0.551-0.163,0.991-0.488,1.323C122.49,60.021,122.054,60.187,121.505,60.187z M121.542,57.195
				c-0.306,0-0.548,0.107-0.726,0.32c-0.178,0.213-0.266,0.508-0.266,0.884c0,0.362,0.09,0.647,0.27,0.855
				c0.18,0.208,0.421,0.312,0.722,0.312c0.308,0,0.544-0.102,0.71-0.307c0.165-0.205,0.248-0.496,0.248-0.874
				c0-0.38-0.083-0.673-0.248-0.88C122.086,57.298,121.85,57.195,121.542,57.195z"/>
			<path fill="#F26522" d="M126.882,56.652l-1.15,1.747l1.137,1.707h-0.907l-0.607-1.068c-0.038-0.065-0.083-0.148-0.135-0.25
				h-0.013c-0.009,0.021-0.057,0.104-0.142,0.25l-0.617,1.068h-0.904l1.174-1.692l-1.113-1.762h0.911l0.597,1.123
				c0.045,0.083,0.089,0.168,0.132,0.257h0.01l0.772-1.38H126.882z"/>
			<path fill="#F26522" d="M129.139,59.998v-0.726c0.292,0.224,0.615,0.334,0.968,0.334c0.472,0,0.708-0.139,0.708-0.418
				c0-0.079-0.021-0.146-0.061-0.199c-0.041-0.057-0.095-0.104-0.164-0.147c-0.068-0.043-0.149-0.081-0.243-0.115
				c-0.093-0.034-0.197-0.071-0.312-0.115c-0.142-0.056-0.27-0.115-0.383-0.179c-0.113-0.063-0.208-0.134-0.283-0.214
				c-0.075-0.08-0.132-0.171-0.17-0.271c-0.038-0.102-0.058-0.22-0.058-0.354c0-0.167,0.04-0.313,0.118-0.44
				c0.079-0.127,0.185-0.233,0.317-0.32c0.133-0.086,0.284-0.151,0.452-0.196c0.168-0.043,0.343-0.065,0.523-0.065
				c0.319,0,0.604,0.049,0.856,0.146V57.4c-0.243-0.166-0.521-0.25-0.836-0.25c-0.099,0-0.188,0.011-0.268,0.03
				c-0.08,0.021-0.148,0.048-0.205,0.084c-0.056,0.036-0.1,0.079-0.131,0.13c-0.031,0.05-0.047,0.106-0.047,0.167
				c0,0.074,0.016,0.138,0.047,0.189c0.031,0.051,0.078,0.097,0.14,0.137c0.062,0.039,0.136,0.075,0.223,0.108
				c0.086,0.031,0.186,0.067,0.298,0.105c0.148,0.062,0.282,0.123,0.399,0.187c0.119,0.063,0.219,0.134,0.302,0.214
				s0.147,0.171,0.192,0.276c0.045,0.104,0.067,0.229,0.067,0.372c0,0.177-0.04,0.328-0.121,0.459
				c-0.081,0.131-0.189,0.238-0.324,0.324c-0.135,0.085-0.291,0.149-0.468,0.19c-0.176,0.042-0.362,0.063-0.558,0.063
				C129.743,60.187,129.416,60.124,129.139,59.998z"/>
			<path fill="#F26522" d="M133.864,60.187c-0.533,0-0.958-0.161-1.276-0.483c-0.318-0.323-0.478-0.75-0.478-1.284
				c0-0.58,0.166-1.033,0.498-1.359s0.778-0.489,1.34-0.489c0.54,0,0.96,0.158,1.262,0.477c0.301,0.317,0.452,0.756,0.452,1.319
				c0,0.551-0.162,0.991-0.487,1.323C134.85,60.021,134.413,60.187,133.864,60.187z M133.901,57.195
				c-0.306,0-0.547,0.107-0.725,0.32c-0.178,0.213-0.266,0.508-0.266,0.884c0,0.362,0.09,0.647,0.27,0.855
				c0.18,0.208,0.421,0.312,0.722,0.312c0.308,0,0.545-0.102,0.71-0.307s0.248-0.496,0.248-0.874c0-0.38-0.083-0.673-0.248-0.88
				C134.446,57.298,134.209,57.195,133.901,57.195z"/>
			<path fill="#F26522" d="M137.244,60.105h-0.786v-5.112h0.786V60.105z"/>
			<path fill="#F26522" d="M141.275,60.105h-0.782v-0.546h-0.014c-0.227,0.418-0.58,0.627-1.059,0.627
				c-0.816,0-1.225-0.49-1.225-1.471v-2.064h0.783v1.983c0,0.621,0.24,0.931,0.718,0.931c0.232,0,0.422-0.085,0.572-0.256
				s0.225-0.395,0.225-0.671v-1.986h0.782V60.105z"/>
			<path fill="#F26522" d="M144.115,60.068c-0.153,0.077-0.354,0.115-0.604,0.115c-0.67,0-1.005-0.321-1.005-0.964v-1.953h-0.577
				v-0.614h0.577v-0.8l0.782-0.223v1.021h0.827v0.614h-0.827v1.728c0,0.205,0.037,0.351,0.111,0.438
				c0.074,0.087,0.198,0.131,0.371,0.131c0.133,0,0.248-0.038,0.344-0.115v0.622H144.115z"/>
			<path fill="#F26522" d="M145.185,55.926c-0.128,0-0.238-0.042-0.329-0.125c-0.092-0.083-0.137-0.189-0.137-0.317
				s0.045-0.234,0.137-0.319c0.09-0.085,0.2-0.128,0.329-0.128c0.132,0,0.245,0.042,0.337,0.128
				c0.092,0.085,0.138,0.191,0.138,0.319c0,0.122-0.046,0.227-0.138,0.313C145.43,55.883,145.317,55.926,145.185,55.926z
				 M145.572,60.105h-0.782v-3.454h0.782V60.105z"/>
			<path fill="#F26522" d="M148.126,60.187c-0.533,0-0.958-0.161-1.277-0.483c-0.319-0.323-0.478-0.75-0.478-1.284
				c0-0.58,0.166-1.033,0.498-1.359s0.778-0.489,1.34-0.489c0.54,0,0.96,0.158,1.262,0.477c0.301,0.317,0.452,0.756,0.452,1.319
				c0,0.551-0.163,0.991-0.488,1.323C149.111,60.021,148.675,60.187,148.126,60.187z M148.163,57.195
				c-0.306,0-0.548,0.107-0.726,0.32s-0.266,0.508-0.266,0.884c0,0.362,0.09,0.647,0.27,0.855s0.421,0.312,0.722,0.312
				c0.308,0,0.544-0.102,0.71-0.307c0.165-0.205,0.248-0.496,0.248-0.874c0-0.38-0.083-0.673-0.248-0.88
				S148.471,57.195,148.163,57.195z"/>
			<path fill="#F26522" d="M153.796,60.105h-0.783v-1.945c0-0.646-0.228-0.969-0.685-0.969c-0.239,0-0.435,0.09-0.59,0.269
				c-0.155,0.179-0.233,0.403-0.233,0.676v1.97h-0.786v-3.454h0.786v0.573h0.014c0.259-0.436,0.632-0.654,1.12-0.654
				c0.375,0,0.662,0.122,0.86,0.366s0.297,0.597,0.297,1.058V60.105z"/>
			<path fill="#F26522" d="M154.535,59.998v-0.726c0.292,0.224,0.615,0.334,0.968,0.334c0.472,0,0.708-0.139,0.708-0.418
				c0-0.079-0.02-0.146-0.061-0.199c-0.041-0.057-0.095-0.104-0.164-0.147c-0.068-0.043-0.149-0.081-0.243-0.115
				c-0.094-0.034-0.197-0.071-0.312-0.115c-0.142-0.056-0.269-0.115-0.383-0.179c-0.113-0.063-0.208-0.134-0.283-0.214
				c-0.075-0.08-0.132-0.171-0.17-0.271c-0.038-0.102-0.057-0.22-0.057-0.354c0-0.167,0.04-0.313,0.118-0.44
				c0.079-0.127,0.185-0.233,0.317-0.32c0.132-0.086,0.283-0.151,0.452-0.196c0.169-0.043,0.343-0.065,0.523-0.065
				c0.32,0,0.604,0.049,0.857,0.146V57.4c-0.243-0.166-0.522-0.25-0.836-0.25c-0.099,0-0.188,0.011-0.268,0.03
				c-0.08,0.021-0.148,0.048-0.204,0.084c-0.057,0.036-0.101,0.079-0.132,0.13c-0.031,0.05-0.047,0.106-0.047,0.167
				c0,0.074,0.016,0.138,0.047,0.189c0.031,0.051,0.078,0.097,0.14,0.137c0.062,0.039,0.136,0.075,0.223,0.108
				c0.086,0.031,0.186,0.067,0.298,0.105c0.148,0.062,0.282,0.123,0.399,0.187c0.119,0.063,0.219,0.134,0.302,0.214
				s0.147,0.171,0.192,0.276c0.045,0.104,0.067,0.229,0.067,0.372c0,0.177-0.041,0.328-0.122,0.459
				c-0.081,0.131-0.189,0.238-0.324,0.324c-0.135,0.086-0.291,0.149-0.467,0.19c-0.176,0.042-0.362,0.063-0.558,0.063
				C155.138,60.187,154.811,60.124,154.535,59.998z"/>
		</g>
	</g>
</g>
<g id="Layer_2" display="none">
	<g display="inline">
		<g>
			<g>
				<path fill="#6ACBE1" d="M139.017,29.819v0.287c0.06-0.125,0.483-0.722,1.359-1.305c0.87-0.581,1.832-0.873,2.87-0.873
					c0.734,0,1.487,0.043,2.177,0.722l-2.185,4.483c-0.464-0.046-0.664-0.232-1.093-0.232c-0.875,0-1.615,0.543-2.219,1.628
					c-0.604,1.079-0.906,3.201-0.906,6.368l0.019,1.102l-0.019,6.793h-5.685l0.063-18.985"/>
				<path fill="#6ACBE1" d="M139.017,29.766c0,1.511-1.154,2.809-2.807,2.809c-1.555,0-2.811-1.255-2.811-2.809
					c0-1.552,1.256-2.807,2.811-2.807C137.761,26.959,139.017,28.214,139.017,29.766"/>
				<path fill="#6ACBE1" d="M146.271,30.553c0,1.403-1.075,2.611-2.614,2.611c-1.441,0-2.614-1.169-2.614-2.611
					c0-1.444,1.172-2.613,2.614-2.613C145.102,27.94,146.271,29.11,146.271,30.553"/>
				<path fill="#6ACBE1" d="M40.537,41.26h-15.62c0.26,1.612,0.966,2.895,2.113,3.846c1.143,0.951,2.604,1.421,4.38,1.421
					c2.063,0,3.84-0.698,5.339-2.098c0.045-0.04,0.827-0.807,0.871-0.852l3.892,3.207c-1.195,1.696-2.462,2.714-4.125,3.524
					c-1.667,0.813-3.645,1.22-5.935,1.22c-3.553,0-6.448-1.122-8.681-3.362c-2.234-2.242-3.351-5.048-3.351-8.421
					c0-3.458,1.114-6.326,3.34-8.61c2.229-2.281,5.022-3.42,8.379-3.42c3.568,0,6.466,1.139,8.704,3.42
					c1.732,1.771,2.735,3.984,3.181,6.625c0.325,1.931-0.117,0.638-0.559,1.703L40.537,41.26z M37.488,36.786
					c-0.373-1.263-1.117-2.289-2.218-3.082c-1.105-0.79-2.387-1.185-3.848-1.185c-1.584,0-2.977,0.445-4.173,1.331
					c-0.747,0.556-1.445,1.537-2.083,2.936H37.488z"/>
				<path fill="#6ACBE1" d="M41.853,45.499c0,1.411-1.143,2.553-2.554,2.553c-1.407,0-2.55-1.143-2.55-2.553
					c0-1.409,1.143-2.551,2.55-2.551C40.71,42.948,41.853,44.09,41.853,45.499"/>
				<path fill="#6ACBE1" d="M43.136,38.662c0,1.437-1.165,2.603-2.603,2.603c-1.437,0-2.604-1.167-2.604-2.603
					c0-1.434,1.167-2.601,2.604-2.601C41.971,36.062,43.136,37.229,43.136,38.662"/>
				<path fill="#6ACBE1" d="M12.505,21.036v6.106l2.86,0.005l0.011,2.355l0.004,2.421h-1.8h-1.075v11.027
					c0,0.948,0.034,1.672,0.098,2.18c0.069,0.506,0.245,0.921,0.531,1.238c0.287,0.318,0.759,0.476,1.408,0.476
					c0.351,0,0.838-0.037,1.434-0.188c0.156-0.038,0.486-0.124,0.486-0.124l0.574,0.386c0,0,1.079-0.74,1.853,0.538
					c0.773,1.28-0.441,2.269-0.441,2.269l-0.05,0.611c0,0-0.37,0.249-0.694,0.399c-1.014,0.479-2.587,0.778-4.579,0.778
					c-1.887,0-3.316-0.317-4.29-0.95c-0.973-0.635-1.611-1.515-1.912-2.635c-0.306-1.121-0.453-2.615-0.453-4.489L6.457,31.924
					h-0.77H3.786l0.031-2.382v-2.395h1.988h0.664v-6.112"/>
				<path fill="#6ACBE1" d="M12.502,21.059c0,1.663-1.347,3.018-3.016,3.018c-1.667,0-3.018-1.355-3.018-3.018
					c0-1.668,1.35-3.019,3.018-3.019C11.155,18.04,12.502,19.391,12.502,21.059"/>
				<path fill="#6ACBE1" d="M17.786,29.535c0,1.32-1.071,2.392-2.388,2.392c-1.324,0-2.392-1.072-2.392-2.392
					c0-1.321,1.068-2.387,2.392-2.387C16.715,27.148,17.786,28.214,17.786,29.535"/>
				<path fill="#6ACBE1" d="M19.15,47.885c0.395,1.13-0.201,2.368-1.333,2.763c-1.127,0.392-2.365-0.204-2.761-1.33
					c-0.392-1.132,0.204-2.368,1.332-2.763C17.519,46.157,18.757,46.754,19.15,47.885"/>
				<path fill="#6ACBE1" d="M6.186,29.535c0,1.32-1.073,2.392-2.392,2.392c-1.32,0-2.392-1.072-2.392-2.392
					c0-1.321,1.072-2.387,2.392-2.387C5.113,27.148,6.186,28.214,6.186,29.535"/>
				<path fill="#6ACBE1" d="M122.625,29.836l5.696-0.015v18.97l-0.007,0.156l-5.66,0.006l-0.019-0.223v-0.182
					c-1.109,1.055-2.223,1.815-3.335,2.278c-1.116,0.467-2.328,0.7-3.629,0.7c-2.924,0-5.456-1.138-7.59-3.403
					c-2.135-2.271-3.199-5.093-3.199-8.466c0-3.499,1.029-6.361,3.097-8.594c2.067-2.233,4.573-3.35,7.527-3.35
					c1.357,0,2.634,0.256,3.825,0.769c1.192,0.508,2.294,1.283,3.305,2.31L122.625,29.836z M116.664,32.958
					c-1.759,0-3.218,0.619-4.38,1.864c-1.162,1.24-1.743,2.832-1.743,4.777c0,1.956,0.594,3.563,1.776,4.829
					c1.182,1.263,2.638,1.894,4.366,1.894c1.784,0,3.267-0.618,4.44-1.863c1.177-1.242,1.761-2.867,1.761-4.882
					c0-1.969-0.584-3.566-1.761-4.789C119.949,33.569,118.462,32.958,116.664,32.958"/>
				<path fill="#6ACBE1" d="M128.313,29.799c0,1.529-1.167,2.842-2.841,2.842c-1.57,0-2.841-1.273-2.841-2.842
					c0-1.57,1.271-2.84,2.841-2.84C127.042,26.959,128.313,28.229,128.313,29.799"/>
				<path fill="#6ACBE1" d="M128.313,48.753c0,1.528-1.167,2.842-2.841,2.842c-1.57,0-2.841-1.272-2.841-2.842
					c0-1.564,1.271-2.836,2.841-2.836C127.042,45.917,128.313,47.189,128.313,48.753"/>
				<polyline fill="#6ACBE1" points="51.806,40.106 51.802,48.796 48.792,48.796 45.796,48.783 45.799,21.028 48.678,21.028 
					51.802,21.028 51.806,37.153 				"/>
				<path fill="#6ACBE1" d="M51.798,21.031c0,1.657-1.343,3-2.999,3c-1.658,0-3.001-1.343-3.001-3c0-1.656,1.343-2.999,3.001-2.999
					C50.456,18.033,51.798,19.376,51.798,21.031"/>
				<path fill="#6ACBE1" d="M51.798,48.607c0,1.656-1.347,2.998-3.004,2.998c-1.66,0-3.003-1.342-3.003-2.998
					c0-1.661,1.343-3.008,3.003-3.008C50.451,45.599,51.798,46.946,51.798,48.607"/>
				<path fill="#6ACBE1" d="M55.405,37.983l8.336,9.213c0,0,0.963,1.489-0.504,3.082C61.77,51.869,59.72,50.6,59.72,50.6
					L48.399,37.923"/>
				<path fill="#6ACBE1" d="M55.34,38.385l6.89-7.319c0,0,1.113-2.296-0.618-3.592c-1.74-1.292-3.665,0.416-3.665,0.416l-6.311,6.58
					l-3.241,3.456"/>
				<path fill="#6ACBE1" d="M62.667,29.579c0,1.457-1.18,2.639-2.637,2.639c-1.453,0-2.633-1.182-2.633-2.639
					c0-1.456,1.18-2.636,2.633-2.636C61.487,26.944,62.667,28.124,62.667,29.579"/>
				<path fill="#6ACBE1" d="M64.406,48.962c0,1.457-1.181,2.633-2.636,2.633c-1.458,0-2.637-1.176-2.637-2.633
					c0-1.457,1.179-2.639,2.637-2.639C63.226,46.323,64.406,47.506,64.406,48.962"/>
				<path fill="#6ACBE1" d="M67.135,29.829l2.728-0.011l2.958,0.003v1.076c0.968-1.068,2.047-1.869,3.236-2.397
					c1.189-0.527,2.487-0.787,3.886-0.787c1.419,0,2.694,0.342,3.832,1.042c1.14,0.688,2.057,1.705,2.751,3.036
					c0.902-1.331,2.011-2.347,3.323-3.036c1.313-0.7,2.748-1.042,4.303-1.042c1.609,0,3.024,0.372,4.251,1.119
					c1.222,0.752,2.097,1.733,2.633,2.94c0.536,1.208,0.803,3.17,0.803,5.889v11.285h-5.723v-9.498c0-2.565-0.324-4.303-0.959-5.214
					c-0.64-0.908-1.595-1.36-2.873-1.36c-0.973,0-1.845,0.278-2.614,0.833c-0.767,0.556-1.341,1.32-1.718,2.299
					c-0.374,0.976-0.607,2.764-0.558,4.716v8.073l-5.727-0.004V39.97c0-2.024-0.151-3.493-0.45-4.401
					c-0.298-0.906-0.75-1.584-1.346-2.028c-0.596-0.445-1.321-0.666-2.17-0.666c-0.946,0-1.808,0.282-2.577,0.845
					c-0.774,0.558-1.351,1.346-1.731,2.356c-0.385,1.017-0.573,2.611-0.573,4.789v7.926l-5.686-0.004V29.829z"/>
				<path fill="#6ACBE1" d="M101.844,48.738c0,1.537-1.173,2.861-2.859,2.861c-1.581,0-2.863-1.278-2.863-2.861
					c0-1.579,1.282-2.861,2.863-2.861C100.566,45.876,101.844,47.158,101.844,48.738"/>
				<path fill="#6ACBE1" d="M72.82,29.814c0,1.575-1.271,2.85-2.845,2.85c-1.573,0-2.844-1.274-2.844-2.85
					c0-1.569,1.271-2.844,2.844-2.844C71.549,26.969,72.82,28.244,72.82,29.814"/>
				<polyline fill="#6ACBE1" points="154.409,40.106 154.405,48.796 151.394,48.796 148.401,48.783 148.401,21.028 151.278,21.028 
					154.405,21.028 154.409,37.153 				"/>
				<path fill="#6ACBE1" d="M154.401,21.031c0,1.657-1.342,3-2.999,3c-1.655,0-2.999-1.343-2.999-3c0-1.656,1.344-2.999,2.999-2.999
					C153.059,18.033,154.401,19.376,154.401,21.031"/>
				<path fill="#6ACBE1" d="M154.401,48.607c0,1.656-1.342,2.998-3.003,2.998c-1.659,0-3.005-1.342-3.005-2.998
					c0-1.661,1.346-3.008,3.005-3.008C153.059,45.599,154.401,46.946,154.401,48.607"/>
				<path fill="#6ACBE1" d="M158.009,37.983l8.338,9.213c0,0,0.958,1.489-0.506,3.082c-1.467,1.592-3.52,0.322-3.52,0.322
					l-11.318-12.677"/>
				<path fill="#6ACBE1" d="M157.945,38.385l6.889-7.319c0,0,1.114-2.296-0.622-3.592c-1.733-1.292-3.661,0.416-3.661,0.416
					l-6.311,6.58l-3.241,3.456"/>
				<path fill="#6ACBE1" d="M165.271,29.579c0,1.457-1.181,2.639-2.637,2.639c-1.454,0-2.634-1.182-2.634-2.639
					c0-1.456,1.18-2.636,2.634-2.636C164.09,26.944,165.271,28.124,165.271,29.579"/>
				<path fill="#6ACBE1" d="M167.008,48.962c0,1.457-1.178,2.633-2.639,2.633c-1.452,0-2.633-1.176-2.633-2.633
					c0-1.457,1.181-2.639,2.633-2.639C165.83,46.323,167.008,47.506,167.008,48.962"/>
				<path fill="#0DC0E2" d="M19.493,41.26c0,0-0.058-0.953-0.08-1.52c-0.041-1.048,0.305-2.98,0.305-2.98l5.441,0.03
					c-0.862,1.954-0.25,4.47-0.25,4.47"/>
				<path fill="#0DC0E2" d="M122.635,37.556v-6.763c2.143,2.175,3.574,5.344,3.574,8.823c0,3.633-1.509,6.504-3.574,8.933v-6.866"/>
				<polyline fill="#0DC0E2" points="12.502,27.15 12.505,31.924 6.46,31.919 6.469,27.14 				"/>
				<path fill="#0DC0E2" d="M72.827,39.495c0,1.084,0.004-0.732,0.004,1.449v7.844l-5.682,0.004c0,0,0.011-1.353,0-2.521
					c0-8.159,5.666-15.373,5.666-15.373"/>
				<path fill="#0DC0E2" d="M81.667,48.731c0.005-0.513,0.007-1.595,0-2.455c0-9.485,4.859-14.472,4.859-14.472
					c1.102,3.66,0.868,7.696,0.868,7.696c0,1.082-0.015-0.739-0.015,1.442l0.007,7.796"/>
				<path fill="#0DC0E2" d="M72.827,48.761c0,1.531-1.168,2.843-2.848,2.843c-1.57,0-2.845-1.27-2.845-2.843
					c0-1.57,1.274-2.845,2.845-2.845C71.552,45.917,72.827,47.192,72.827,48.761"/>
				<path fill="#0DC0E2" d="M87.397,48.731c0,1.538-1.173,2.864-2.858,2.864c-1.582,0-2.864-1.282-2.864-2.864
					c0-1.58,1.283-2.86,2.864-2.86C86.119,45.871,87.397,47.151,87.397,48.731"/>
				<path fill="#0DC0E2" d="M139.014,39.503c0,1.056,0.002-0.712,0.002,1.411v7.878h-5.686c0,0,0.015-0.895,0-2.029
					c0-10.537,5.686-16.638,5.686-16.638L139.014,39.503z"/>
				<path fill="#0DC0E2" d="M139.027,48.72c0,1.532-1.168,2.847-2.844,2.847c-1.574,0-2.848-1.275-2.848-2.847
					c0-1.575,1.274-2.844,2.848-2.844C137.753,45.876,139.027,47.146,139.027,48.72"/>
				<polygon fill="#0DC0E2" points="51.806,34.289 51.806,41.733 48.407,37.923 				"/>
				<polygon fill="#0DC0E2" points="154.409,34.289 154.409,41.733 151.022,37.933 				"/>
				<g>
					<path fill="#F26F21" d="M127.125,58.892c0,0.317-0.079,0.583-0.235,0.81c-0.154,0.225-0.376,0.397-0.681,0.51
						c-0.299,0.116-0.661,0.174-1.092,0.174c-0.41,0-0.762-0.06-1.06-0.188c-0.29-0.125-0.506-0.284-0.645-0.473
						c-0.139-0.188-0.208-0.372-0.208-0.561c0-0.128,0.047-0.233,0.133-0.324c0.091-0.092,0.2-0.136,0.341-0.136
						c0.12,0,0.214,0.031,0.274,0.085c0.067,0.06,0.128,0.144,0.189,0.25c0.114,0.203,0.252,0.359,0.416,0.457
						c0.164,0.098,0.388,0.15,0.668,0.15c0.228,0,0.417-0.053,0.564-0.156c0.148-0.1,0.223-0.214,0.223-0.346
						c0-0.199-0.083-0.348-0.229-0.44c-0.155-0.096-0.403-0.18-0.751-0.265c-0.397-0.098-0.717-0.201-0.967-0.306
						c-0.244-0.109-0.439-0.25-0.588-0.426c-0.146-0.175-0.223-0.394-0.223-0.649c0-0.227,0.067-0.445,0.204-0.648
						c0.14-0.203,0.34-0.368,0.607-0.487c0.265-0.121,0.585-0.182,0.967-0.182c0.293,0,0.558,0.029,0.795,0.089
						c0.238,0.062,0.431,0.146,0.592,0.25c0.155,0.104,0.276,0.218,0.359,0.341c0.079,0.129,0.124,0.248,0.124,0.37
						c0,0.132-0.045,0.239-0.131,0.32c-0.087,0.085-0.212,0.129-0.377,0.129c-0.12,0-0.215-0.036-0.298-0.104
						c-0.084-0.063-0.179-0.167-0.284-0.303c-0.085-0.112-0.189-0.197-0.305-0.263c-0.117-0.068-0.28-0.104-0.476-0.104
						c-0.211,0-0.381,0.043-0.517,0.132c-0.136,0.091-0.208,0.199-0.208,0.328c0,0.121,0.053,0.223,0.154,0.299
						c0.096,0.076,0.234,0.144,0.405,0.192s0.402,0.108,0.701,0.183c0.355,0.085,0.649,0.19,0.872,0.307
						c0.222,0.121,0.393,0.263,0.509,0.428C127.064,58.493,127.125,58.684,127.125,58.892"/>
					<path fill="#F26F21" d="M128.669,55.204c-0.16,0-0.295-0.045-0.409-0.143c-0.117-0.099-0.168-0.236-0.168-0.415
						c0-0.161,0.059-0.294,0.172-0.4c0.113-0.107,0.249-0.158,0.405-0.158c0.146,0,0.279,0.051,0.392,0.144
						c0.113,0.096,0.169,0.233,0.169,0.415c0,0.179-0.054,0.313-0.166,0.413C128.955,55.159,128.823,55.204,128.669,55.204
						 M129.23,56.386v3.305c0,0.23-0.05,0.4-0.159,0.521c-0.109,0.114-0.249,0.174-0.418,0.174c-0.167,0-0.302-0.06-0.408-0.178
						c-0.103-0.121-0.154-0.295-0.154-0.517V56.42c0-0.223,0.051-0.393,0.154-0.509c0.106-0.114,0.241-0.171,0.408-0.171
						c0.169,0,0.31,0.057,0.418,0.171C129.181,56.028,129.23,56.183,129.23,56.386"/>
					<path fill="#F26F21" d="M131.452,56.371v0.138c0.2-0.263,0.419-0.458,0.657-0.583c0.241-0.125,0.512-0.186,0.825-0.186
						c0.302,0,0.571,0.061,0.808,0.196c0.238,0.129,0.415,0.316,0.532,0.555c0.075,0.145,0.125,0.289,0.144,0.454
						c0.026,0.161,0.038,0.368,0.038,0.618v2.127c0,0.23-0.054,0.4-0.164,0.521c-0.1,0.114-0.236,0.174-0.407,0.174
						c-0.169,0-0.305-0.06-0.41-0.178c-0.111-0.121-0.159-0.295-0.159-0.517v-1.9c0-0.383-0.054-0.669-0.163-0.868
						c-0.101-0.201-0.309-0.299-0.623-0.299c-0.199,0-0.392,0.06-0.553,0.182c-0.171,0.121-0.291,0.286-0.37,0.503
						c-0.056,0.167-0.083,0.484-0.083,0.953v1.43c0,0.23-0.057,0.408-0.159,0.521c-0.109,0.116-0.25,0.174-0.419,0.174
						c-0.165,0-0.304-0.06-0.408-0.178c-0.105-0.121-0.161-0.295-0.161-0.517v-3.305c0-0.216,0.049-0.383,0.147-0.482
						c0.093-0.11,0.222-0.163,0.388-0.163c0.101,0,0.189,0.022,0.271,0.067c0.078,0.051,0.143,0.118,0.195,0.218
						C131.43,56.117,131.452,56.236,131.452,56.371"/>
					<path fill="#F26F21" d="M139.691,58.97c0,0.143-0.042,0.295-0.128,0.456c-0.083,0.161-0.217,0.319-0.389,0.464
						c-0.174,0.148-0.395,0.265-0.66,0.355c-0.263,0.087-0.562,0.132-0.893,0.132c-0.709,0-1.261-0.206-1.656-0.615
						c-0.396-0.41-0.593-0.966-0.593-1.66c0-0.468,0.091-0.883,0.271-1.239c0.178-0.36,0.441-0.642,0.786-0.835
						c0.343-0.2,0.756-0.298,1.229-0.298c0.3,0,0.575,0.046,0.816,0.131c0.249,0.089,0.459,0.195,0.629,0.337
						c0.174,0.132,0.302,0.282,0.396,0.438c0.091,0.154,0.135,0.295,0.135,0.43c0,0.138-0.052,0.257-0.154,0.352
						c-0.101,0.094-0.226,0.138-0.37,0.138c-0.097,0-0.174-0.022-0.238-0.071c-0.063-0.049-0.135-0.128-0.21-0.235
						c-0.141-0.214-0.287-0.371-0.438-0.477c-0.151-0.106-0.347-0.165-0.581-0.165c-0.34,0-0.612,0.136-0.814,0.4
						c-0.208,0.263-0.314,0.62-0.314,1.08c0,0.216,0.031,0.411,0.084,0.593c0.049,0.181,0.128,0.333,0.23,0.462
						c0.099,0.123,0.222,0.221,0.362,0.288c0.142,0.065,0.301,0.098,0.466,0.098c0.231,0,0.428-0.053,0.594-0.157
						c0.161-0.105,0.308-0.269,0.433-0.485c0.069-0.129,0.143-0.232,0.223-0.303c0.087-0.073,0.18-0.107,0.297-0.107
						c0.141,0,0.253,0.055,0.352,0.156C139.644,58.741,139.691,58.848,139.691,58.97"/>
					<path fill="#F26F21" d="M143.88,58.343h-2.238c0,0.257,0.057,0.491,0.155,0.688c0.106,0.195,0.242,0.343,0.411,0.443
						c0.166,0.104,0.352,0.156,0.556,0.156c0.14,0,0.263-0.015,0.376-0.053c0.115-0.027,0.222-0.079,0.333-0.148
						c0.103-0.068,0.2-0.145,0.29-0.221c0.088-0.076,0.205-0.182,0.343-0.317c0.06-0.051,0.148-0.074,0.258-0.074
						c0.115,0,0.207,0.03,0.282,0.096c0.075,0.063,0.109,0.154,0.109,0.272c0,0.1-0.042,0.227-0.125,0.362
						c-0.081,0.136-0.203,0.271-0.361,0.395c-0.166,0.129-0.371,0.234-0.619,0.317c-0.246,0.089-0.529,0.125-0.854,0.125
						c-0.735,0-1.305-0.208-1.708-0.625c-0.409-0.421-0.612-0.986-0.612-1.703c0-0.339,0.048-0.656,0.147-0.938
						c0.103-0.292,0.249-0.542,0.438-0.747c0.196-0.208,0.433-0.368,0.717-0.475c0.283-0.112,0.592-0.167,0.937-0.167
						c0.448,0,0.829,0.095,1.15,0.281c0.316,0.19,0.554,0.437,0.717,0.731c0.162,0.301,0.237,0.602,0.237,0.914
						c0,0.288-0.079,0.477-0.246,0.56C144.413,58.303,144.177,58.343,143.88,58.343 M141.642,57.695h2.072
						c-0.026-0.394-0.132-0.682-0.313-0.877c-0.184-0.194-0.422-0.292-0.72-0.292c-0.291,0-0.521,0.098-0.703,0.293
						C141.793,57.017,141.68,57.31,141.642,57.695"/>
					<path fill="#F26F21" d="M149.713,59.691v-4.957c0-0.23,0.052-0.398,0.155-0.517c0.101-0.118,0.236-0.175,0.411-0.175
						c0.172,0,0.313,0.054,0.417,0.171c0.106,0.116,0.159,0.29,0.159,0.521v4.957c0,0.23-0.052,0.408-0.159,0.521
						c-0.109,0.116-0.248,0.174-0.417,0.174c-0.167,0-0.306-0.06-0.41-0.178C149.765,60.086,149.713,59.912,149.713,59.691"/>
					<path fill="#F26F21" d="M155.892,57.532c-0.184,0.214-0.39,0.381-0.618,0.491c-0.227,0.109-0.479,0.167-0.758,0.167
						c-0.26,0-0.505-0.053-0.728-0.152c-0.231-0.102-0.43-0.248-0.594-0.43c-0.168-0.187-0.292-0.396-0.384-0.641
						c-0.089-0.247-0.131-0.502-0.131-0.767c0-0.29,0.049-0.562,0.147-0.817c0.102-0.263,0.245-0.484,0.434-0.676
						c0.185-0.19,0.41-0.335,0.667-0.442c0.256-0.105,0.547-0.157,0.854-0.157c0.366,0,0.683,0.062,0.966,0.195
						c0.283,0.133,0.516,0.319,0.713,0.569c0.192,0.248,0.34,0.565,0.44,0.942c0.106,0.382,0.155,0.813,0.155,1.295
						c0,0.533-0.052,1.008-0.162,1.413c-0.105,0.413-0.268,0.756-0.475,1.033c-0.208,0.277-0.457,0.481-0.748,0.62
						c-0.291,0.132-0.619,0.2-0.988,0.2c-0.362,0-0.675-0.068-0.947-0.206c-0.269-0.14-0.472-0.307-0.612-0.517
						c-0.139-0.205-0.208-0.405-0.208-0.594c0-0.112,0.045-0.22,0.13-0.313c0.086-0.089,0.198-0.14,0.331-0.14
						c0.121,0,0.234,0.038,0.332,0.104c0.1,0.069,0.17,0.173,0.224,0.311c0.06,0.166,0.162,0.302,0.302,0.403
						c0.147,0.102,0.306,0.152,0.482,0.152c0.159,0,0.311-0.043,0.454-0.121c0.139-0.083,0.264-0.195,0.366-0.345
						C155.73,58.816,155.854,58.288,155.892,57.532 M155.793,56.252c0-0.196-0.022-0.368-0.075-0.529
						c-0.052-0.158-0.124-0.299-0.216-0.415c-0.093-0.119-0.206-0.208-0.333-0.275c-0.132-0.065-0.273-0.1-0.426-0.1
						c-0.269,0-0.493,0.11-0.68,0.337c-0.181,0.23-0.271,0.531-0.271,0.904c0,0.375,0.091,0.669,0.271,0.886
						c0.188,0.22,0.418,0.334,0.702,0.334c0.177,0,0.339-0.048,0.499-0.137c0.158-0.09,0.286-0.223,0.384-0.395
						C155.746,56.689,155.793,56.486,155.793,56.252"/>
					<path fill="#F26F21" d="M160.989,57.532c-0.189,0.214-0.393,0.381-0.619,0.491c-0.226,0.109-0.479,0.167-0.756,0.167
						c-0.263,0-0.509-0.053-0.735-0.152c-0.226-0.102-0.426-0.248-0.592-0.43c-0.162-0.187-0.293-0.396-0.38-0.641
						c-0.091-0.247-0.137-0.502-0.137-0.767c0-0.29,0.05-0.562,0.151-0.817c0.102-0.263,0.245-0.484,0.431-0.676
						c0.188-0.19,0.41-0.335,0.666-0.442c0.262-0.105,0.548-0.157,0.856-0.157c0.363,0,0.684,0.062,0.967,0.195
						c0.279,0.133,0.518,0.319,0.71,0.569c0.196,0.248,0.343,0.565,0.445,0.942c0.105,0.382,0.155,0.813,0.155,1.295
						c0,0.533-0.057,1.008-0.162,1.413c-0.109,0.413-0.269,0.756-0.476,1.033c-0.212,0.277-0.457,0.481-0.748,0.62
						c-0.293,0.132-0.621,0.2-0.988,0.2c-0.366,0-0.678-0.068-0.946-0.206c-0.268-0.14-0.473-0.307-0.613-0.517
						c-0.138-0.205-0.21-0.405-0.21-0.594c0-0.112,0.046-0.22,0.131-0.313c0.088-0.089,0.197-0.14,0.333-0.14
						c0.12,0,0.23,0.038,0.328,0.104c0.098,0.069,0.172,0.173,0.223,0.311c0.06,0.166,0.162,0.302,0.304,0.403
						c0.143,0.102,0.302,0.152,0.484,0.152c0.158,0,0.31-0.043,0.452-0.121c0.14-0.083,0.264-0.195,0.363-0.345
						C160.827,58.816,160.951,58.288,160.989,57.532 M160.892,56.252c0-0.196-0.027-0.368-0.079-0.529
						c-0.05-0.158-0.121-0.299-0.216-0.415c-0.095-0.119-0.207-0.208-0.336-0.275c-0.132-0.065-0.271-0.1-0.426-0.1
						c-0.261,0-0.491,0.11-0.672,0.337c-0.189,0.23-0.279,0.531-0.279,0.904c0,0.375,0.09,0.669,0.279,0.886
						c0.181,0.22,0.416,0.334,0.698,0.334c0.173,0,0.34-0.048,0.497-0.137c0.155-0.09,0.288-0.223,0.382-0.395
						C160.842,56.689,160.892,56.486,160.892,56.252"/>
					<path fill="#F26F21" d="M167.338,58.121c-0.131-0.06-0.305-0.088-0.52-0.088h-0.177v-3.238c0-0.487-0.211-0.732-0.638-0.732
						c-0.132,0-0.247,0.046-0.336,0.131c-0.096,0.091-0.217,0.233-0.358,0.426l-2.219,2.97c-0.063,0.08-0.113,0.148-0.154,0.203
						c-0.047,0.058-0.083,0.114-0.125,0.174c-0.038,0.062-0.067,0.121-0.083,0.174c-0.022,0.053-0.03,0.11-0.03,0.163
						c0,0.203,0.063,0.37,0.197,0.485c0.131,0.122,0.331,0.182,0.595,0.182h2.102v0.782c0,0.207,0.048,0.364,0.146,0.47
						c0.096,0.11,0.225,0.163,0.379,0.163c0.158,0,0.285-0.049,0.38-0.154c0.094-0.106,0.145-0.265,0.145-0.479V58.97h0.256
						c0.208,0,0.37-0.033,0.476-0.109c0.104-0.072,0.162-0.193,0.162-0.354C167.535,58.31,167.466,58.178,167.338,58.121
						 M165.146,58.017c-0.924,0-0.924-1.426,0-1.426C166.067,56.591,166.067,58.017,165.146,58.017"/>
					<path fill="#F26F21" d="M164.978,56.433c0.048-0.438,0.528-0.438,0.528-0.913c0,0.475-0.48,0.475-0.562,0.959"/>
				</g>
			</g>
			<g>
				<ellipse fill="#FFFFFF" stroke="#69C8C9" stroke-width="0.4829" cx="169.268" cy="22.281" rx="3.666" ry="3.463"/>
			</g>
			<g>
				<path fill="#69C8C9" d="M167.747,24.166v-3.732h1.587c0.397,0,0.688,0.033,0.869,0.101c0.181,0.067,0.325,0.187,0.434,0.358
					s0.162,0.367,0.162,0.588c0,0.28-0.082,0.511-0.246,0.693c-0.166,0.183-0.41,0.298-0.739,0.345
					c0.164,0.095,0.298,0.199,0.405,0.313c0.104,0.114,0.248,0.316,0.429,0.605l0.455,0.729h-0.901l-0.544-0.812
					c-0.194-0.29-0.326-0.473-0.397-0.549c-0.071-0.075-0.146-0.127-0.228-0.155c-0.079-0.028-0.205-0.042-0.379-0.042h-0.152v1.558
					H167.747z M168.501,22.012h0.557c0.361,0,0.588-0.015,0.678-0.046c0.09-0.03,0.16-0.083,0.211-0.158s0.076-0.168,0.076-0.28
					c0-0.125-0.033-0.227-0.101-0.304c-0.065-0.077-0.161-0.126-0.283-0.146c-0.061-0.009-0.244-0.013-0.55-0.013h-0.588V22.012z"/>
			</g>
		</g>
		<g>
			<path fill="#6ACBE1" d="M82.843,70.429c-0.191,0-0.341-0.059-0.452-0.18c-0.109-0.116-0.167-0.277-0.167-0.48v-3.925
				c0-0.076-0.041-0.115-0.128-0.121h-0.427c-0.181,0-0.325-0.053-0.423-0.152c-0.104-0.098-0.157-0.229-0.157-0.404
				c0-0.168,0.053-0.301,0.162-0.4c0.104-0.098,0.244-0.145,0.418-0.145h0.427c0.087,0,0.133-0.04,0.128-0.121v-0.734
				c0-0.203,0.058-0.366,0.167-0.487c0.111-0.116,0.261-0.174,0.452-0.174c0.18,0,0.33,0.058,0.446,0.18
				c0.11,0.121,0.167,0.284,0.167,0.481V64.5c0,0.075,0.046,0.115,0.133,0.121h0.521c0.174,0,0.313,0.047,0.423,0.145
				c0.104,0.1,0.156,0.232,0.156,0.4c0,0.167-0.052,0.301-0.156,0.399c-0.11,0.104-0.249,0.157-0.423,0.157h-0.521
				c-0.087,0-0.133,0.04-0.133,0.121v3.925c0,0.197-0.058,0.354-0.167,0.475C83.173,70.365,83.022,70.429,82.843,70.429z"/>
			<path fill="#6ACBE1" d="M88.029,70.487c-0.886,0-1.604-0.277-2.154-0.834c-0.556-0.556-0.833-1.279-0.833-2.176
				c0-0.875,0.249-1.593,0.752-2.149c0.504-0.549,1.147-0.827,1.94-0.827c0.799,0,1.453,0.261,1.957,0.782
				c0.503,0.525,0.758,1.198,0.758,2.021c0,0.254-0.034,0.428-0.104,0.52c-0.075,0.095-0.208,0.14-0.405,0.14h-3.485
				c-0.104,0-0.157,0.069-0.157,0.203c0,0.341,0.174,0.636,0.522,0.897c0.347,0.261,0.741,0.393,1.187,0.393
				c0.122,0,0.243-0.011,0.364-0.027c0.122-0.018,0.232-0.047,0.342-0.087c0.11-0.041,0.203-0.076,0.278-0.11
				c0.075-0.029,0.15-0.063,0.237-0.105c0.081-0.039,0.128-0.063,0.145-0.068c0.18-0.076,0.342-0.076,0.475,0.006
				c0.133,0.081,0.197,0.213,0.197,0.405c0,0.174-0.075,0.324-0.226,0.451C89.395,70.296,88.799,70.487,88.029,70.487z
				 M89.07,67.076c0.111,0,0.169-0.069,0.169-0.214c0-0.398-0.14-0.735-0.412-0.996c-0.278-0.26-0.631-0.394-1.054-0.394
				c-0.428,0-0.782,0.134-1.06,0.394c-0.277,0.266-0.417,0.608-0.417,1.02c0,0.074,0.012,0.127,0.035,0.15
				c0.023,0.029,0.069,0.04,0.133,0.04H89.07z"/>
			<path fill="#6ACBE1" d="M95.304,69.376c0.145,0.15,0.215,0.318,0.215,0.498c0,0.166-0.053,0.301-0.163,0.409
				c-0.11,0.11-0.249,0.169-0.406,0.169c-0.191,0-0.376-0.116-0.555-0.341l-1.876-2.311v1.968c0,0.214-0.052,0.377-0.162,0.498
				c-0.109,0.122-0.26,0.186-0.451,0.186s-0.342-0.063-0.452-0.186c-0.109-0.121-0.167-0.284-0.167-0.498v-7.081
				c0-0.203,0.058-0.369,0.167-0.491c0.11-0.123,0.261-0.187,0.452-0.187s0.342,0.063,0.451,0.187
				c0.11,0.122,0.162,0.288,0.162,0.491v3.972l1.685-1.852c0.156-0.174,0.318-0.261,0.487-0.261c0.173,0,0.313,0.053,0.417,0.155
				c0.098,0.105,0.15,0.243,0.15,0.417c0,0.192-0.087,0.372-0.261,0.546l-1.424,1.492c-0.069,0.069-0.075,0.14-0.012,0.214
				L95.304,69.376z"/>
			<path fill="#6ACBE1" d="M97.45,70.267c0,0-0.029,0.035-0.082,0.093c-0.058,0.063-0.179,0.093-0.371,0.093
				c-0.191,0-0.336-0.063-0.446-0.186c-0.109-0.121-0.167-0.284-0.167-0.498v-4.51c0-0.214,0.058-0.383,0.167-0.504
				c0.11-0.121,0.255-0.185,0.446-0.185c0.319,0,0.504,0.145,0.567,0.438c0.023,0.105,0.075,0.123,0.157,0.047
				c0.393-0.369,0.857-0.556,1.39-0.556c0.648,0,1.141,0.255,1.482,0.77c0.063,0.1,0.133,0.093,0.214-0.011
				c0.434-0.504,0.978-0.759,1.632-0.759c0.625,0,1.118,0.221,1.482,0.661c0.365,0.438,0.545,1.029,0.545,1.771v2.837
				c0,0.214-0.053,0.377-0.162,0.498c-0.11,0.122-0.261,0.186-0.451,0.186c-0.191,0-0.342-0.063-0.452-0.186
				c-0.11-0.121-0.168-0.284-0.168-0.498v-2.837c0-0.428-0.099-0.764-0.29-1.014c-0.191-0.242-0.457-0.364-0.799-0.364
				s-0.608,0.122-0.805,0.364c-0.196,0.25-0.295,0.58-0.295,1.002v2.849c0,0.214-0.058,0.377-0.168,0.498
				c-0.11,0.122-0.261,0.186-0.452,0.186c-0.191,0-0.335-0.063-0.445-0.186c-0.11-0.121-0.168-0.284-0.168-0.498v-2.837
				c0-0.428-0.099-0.764-0.29-1.014c-0.197-0.242-0.463-0.364-0.805-0.364s-0.608,0.122-0.805,0.364
				c-0.196,0.25-0.295,0.58-0.295,1.002v2.849C97.617,69.983,97.56,70.146,97.45,70.267z"/>
			<path fill="#6ACBE1" d="M107.971,70.499c-0.776,0-1.407-0.279-1.899-0.834c-0.492-0.556-0.735-1.28-0.735-2.167
				c0-0.884,0.244-1.604,0.735-2.165c0.492-0.555,1.123-0.833,1.899-0.833c0.625,0,1.158,0.208,1.598,0.632
				c0.075,0.069,0.139,0.034,0.18-0.1c0.069-0.307,0.26-0.462,0.579-0.462c0.191,0,0.342,0.063,0.451,0.185
				c0.111,0.121,0.169,0.29,0.169,0.493v4.531c0,0.203-0.058,0.366-0.169,0.487c-0.109,0.122-0.26,0.186-0.451,0.186
				c-0.348,0-0.544-0.18-0.591-0.544c-0.023-0.11-0.075-0.129-0.156-0.047C109.134,70.283,108.596,70.499,107.971,70.499z
				 M107.033,68.906c0,0,0.075,0.087,0.219,0.267c0.145,0.179,0.452,0.271,0.921,0.271c0.463,0,0.845-0.18,1.14-0.538
				c0.295-0.358,0.447-0.828,0.447-1.408c0-0.572-0.151-1.047-0.447-1.411c-0.294-0.364-0.677-0.546-1.14-0.546
				c-0.469,0-0.846,0.182-1.141,0.546c-0.295,0.364-0.44,0.839-0.44,1.411C106.593,68.078,106.738,68.548,107.033,68.906z"/>
			<path fill="#6ACBE1" d="M113.266,70.267c0,0-0.029,0.035-0.081,0.093c-0.058,0.063-0.18,0.093-0.37,0.093
				c-0.191,0-0.336-0.063-0.447-0.186c-0.11-0.121-0.167-0.284-0.167-0.498v-4.51c0-0.214,0.058-0.383,0.174-0.504
				c0.109-0.121,0.271-0.185,0.475-0.185c0.26,0,0.451,0.145,0.562,0.428c0.046,0.121,0.11,0.134,0.197,0.047
				c0.33-0.366,0.741-0.545,1.222-0.545c0.647,0,0.972,0.221,0.972,0.653c0,0.158-0.046,0.285-0.139,0.383
				c-0.099,0.1-0.226,0.15-0.394,0.15c-0.069,0-0.174-0.017-0.318-0.045c-0.145-0.029-0.266-0.048-0.37-0.048
				c-0.371,0-0.654,0.15-0.852,0.446c-0.197,0.301-0.295,0.735-0.295,1.297v2.432C113.433,69.983,113.375,70.146,113.266,70.267z"/>
			<path fill="#6ACBE1" d="M120.49,69.376c0.144,0.15,0.213,0.318,0.213,0.498c0,0.166-0.052,0.301-0.162,0.409
				c-0.109,0.11-0.249,0.169-0.405,0.169c-0.191,0-0.377-0.116-0.556-0.341l-1.875-2.311v1.968c0,0.214-0.052,0.377-0.162,0.498
				c-0.111,0.122-0.261,0.186-0.452,0.186s-0.341-0.063-0.451-0.186c-0.11-0.121-0.168-0.284-0.168-0.498v-7.081
				c0-0.203,0.058-0.369,0.168-0.491c0.11-0.123,0.26-0.187,0.451-0.187s0.341,0.063,0.452,0.187
				c0.11,0.122,0.162,0.288,0.162,0.491v3.972l1.684-1.852c0.157-0.174,0.319-0.261,0.487-0.261c0.174,0,0.313,0.053,0.417,0.155
				c0.099,0.105,0.15,0.243,0.15,0.417c0,0.192-0.086,0.372-0.26,0.546l-1.424,1.492c-0.07,0.069-0.075,0.14-0.012,0.214
				L120.49,69.376z"/>
			<path fill="#6ACBE1" d="M126.639,70.499c-0.619,0-1.117-0.129-1.493-0.388c-0.22-0.152-0.331-0.332-0.336-0.533
				c0-0.145,0.052-0.266,0.15-0.365c0.099-0.099,0.215-0.146,0.348-0.146c0.069,0,0.202,0.042,0.405,0.129
				c0.371,0.174,0.666,0.259,0.886,0.259c0.237,0,0.434-0.068,0.59-0.201c0.156-0.134,0.231-0.308,0.231-0.521
				c0-0.203-0.08-0.383-0.249-0.527c-0.167-0.146-0.364-0.271-0.602-0.375c-0.237-0.1-0.481-0.216-0.718-0.337
				c-0.243-0.122-0.446-0.296-0.613-0.525c-0.167-0.227-0.25-0.512-0.25-0.841c0-0.491,0.186-0.887,0.55-1.182
				c0.365-0.295,0.852-0.445,1.453-0.445c0.411,0,0.747,0.07,1.019,0.202c0.272,0.127,0.405,0.307,0.405,0.533
				c0,0.155-0.058,0.29-0.174,0.388c-0.115,0.105-0.267,0.155-0.446,0.155c-0.121,0-0.26-0.039-0.422-0.121
				c-0.167-0.074-0.318-0.116-0.451-0.116c-0.197,0-0.36,0.053-0.481,0.163c-0.122,0.111-0.185,0.243-0.185,0.412
				c0,0.174,0.086,0.324,0.255,0.451c0.167,0.134,0.376,0.248,0.62,0.353c0.236,0.104,0.48,0.22,0.717,0.349
				c0.237,0.132,0.439,0.316,0.608,0.562c0.167,0.248,0.254,0.543,0.254,0.892c0,0.538-0.186,0.966-0.562,1.29
				S127.271,70.499,126.639,70.499z"/>
			<path fill="#6ACBE1" d="M134.251,69.665c0,0-0.133,0.138-0.394,0.417c-0.26,0.277-0.811,0.417-1.65,0.417
				c-0.84,0-1.523-0.279-2.05-0.834c-0.526-0.556-0.787-1.28-0.787-2.167c0-0.884,0.261-1.604,0.787-2.165
				c0.527-0.555,1.21-0.833,2.05-0.833c0.839,0,1.517,0.278,2.044,0.833c0.526,0.562,0.787,1.281,0.787,2.165
				C135.039,68.385,134.778,69.11,134.251,69.665z M131.067,68.912c0,0,0.075,0.092,0.22,0.271c0.144,0.18,0.451,0.271,0.92,0.271
				c0.463,0,0.839-0.18,1.134-0.543c0.295-0.364,0.44-0.834,0.44-1.414c0-0.572-0.145-1.047-0.44-1.411s-0.671-0.546-1.134-0.546
				c-0.469,0-0.845,0.182-1.141,0.546s-0.44,0.839-0.44,1.411C130.626,68.078,130.771,68.548,131.067,68.912z"/>
			<path fill="#6ACBE1" d="M136.993,70.267c0,0-0.029,0.035-0.087,0.093c-0.052,0.063-0.174,0.093-0.365,0.093
				c-0.19,0-0.341-0.063-0.451-0.186c-0.109-0.121-0.167-0.284-0.167-0.498v-7.081c0-0.203,0.058-0.369,0.167-0.491
				c0.11-0.123,0.261-0.187,0.451-0.187c0.191,0,0.342,0.063,0.452,0.187c0.11,0.122,0.162,0.288,0.162,0.491v7.081
				C137.155,69.983,137.103,70.146,136.993,70.267z"/>
			<path fill="#6ACBE1" d="M142.457,64.755c0,0,0.024-0.029,0.082-0.092c0.052-0.063,0.173-0.093,0.364-0.093
				c0.191,0,0.342,0.063,0.452,0.185c0.109,0.121,0.167,0.29,0.167,0.504v4.51c0,0.214-0.058,0.377-0.167,0.498
				c-0.11,0.122-0.261,0.186-0.452,0.186c-0.33,0-0.526-0.169-0.591-0.499c-0.017-0.087-0.034-0.132-0.063-0.138
				c-0.029,0-0.075,0.029-0.138,0.093c-0.365,0.394-0.852,0.591-1.471,0.591c-0.677,0-1.222-0.237-1.626-0.707
				c-0.412-0.469-0.614-1.094-0.614-1.875v-2.658c0-0.214,0.058-0.383,0.168-0.504c0.109-0.121,0.26-0.185,0.451-0.185
				s0.342,0.063,0.452,0.185c0.109,0.121,0.161,0.29,0.161,0.504v2.563c0,0.504,0.116,0.904,0.354,1.188
				c0.232,0.29,0.55,0.435,0.961,0.435c0.4,0,0.724-0.14,0.973-0.417c0.25-0.271,0.371-0.643,0.371-1.1v-2.669
				C142.289,65.045,142.347,64.876,142.457,64.755z"/>
			<path fill="#6ACBE1" d="M145.782,70.429c-0.191,0-0.341-0.059-0.451-0.18c-0.11-0.116-0.168-0.277-0.168-0.48v-3.925
				c0-0.076-0.04-0.115-0.127-0.121h-0.429c-0.179,0-0.324-0.053-0.423-0.152c-0.104-0.098-0.156-0.229-0.156-0.404
				c0-0.168,0.052-0.301,0.162-0.4c0.104-0.098,0.243-0.145,0.417-0.145h0.429c0.087,0,0.133-0.04,0.127-0.121v-0.734
				c0-0.203,0.058-0.366,0.168-0.487c0.11-0.116,0.26-0.174,0.451-0.174c0.18,0,0.33,0.058,0.446,0.18
				c0.11,0.121,0.168,0.284,0.168,0.481V64.5c0,0.075,0.046,0.115,0.133,0.121h0.521c0.173,0,0.313,0.047,0.422,0.145
				c0.104,0.1,0.157,0.232,0.157,0.4c0,0.167-0.053,0.301-0.157,0.399c-0.11,0.104-0.25,0.157-0.422,0.157h-0.521
				c-0.086,0-0.133,0.04-0.133,0.121v3.925c0,0.197-0.058,0.354-0.168,0.475C146.112,70.365,145.962,70.429,145.782,70.429z"/>
			<path fill="#6ACBE1" d="M149.567,63.73c0,0-0.034,0.036-0.098,0.1c-0.064,0.069-0.203,0.104-0.406,0.104
				c-0.208,0-0.376-0.069-0.504-0.203c-0.133-0.132-0.196-0.301-0.196-0.496c0-0.198,0.063-0.366,0.196-0.499
				c0.128-0.134,0.295-0.202,0.504-0.202c0.203,0,0.371,0.068,0.503,0.202c0.128,0.133,0.191,0.301,0.191,0.499
				C149.759,63.429,149.695,63.598,149.567,63.73z M149.516,70.267c0,0-0.029,0.035-0.087,0.093
				c-0.052,0.063-0.174,0.093-0.365,0.093c-0.19,0-0.341-0.063-0.451-0.186c-0.11-0.121-0.167-0.284-0.167-0.498v-4.521
				c0-0.203,0.058-0.372,0.167-0.493s0.261-0.185,0.451-0.185c0.191,0,0.341,0.063,0.452,0.185c0.109,0.121,0.162,0.29,0.162,0.493
				v4.521C149.678,69.983,149.625,70.146,149.516,70.267z"/>
			<path fill="#6ACBE1" d="M155.548,69.665c0,0-0.133,0.138-0.394,0.417c-0.26,0.277-0.811,0.417-1.65,0.417
				c-0.84,0-1.522-0.279-2.05-0.834c-0.526-0.556-0.788-1.28-0.788-2.167c0-0.884,0.261-1.604,0.788-2.165
				c0.527-0.555,1.21-0.833,2.05-0.833c0.839,0,1.517,0.278,2.044,0.833c0.526,0.562,0.788,1.281,0.788,2.165
				C156.335,68.385,156.074,69.11,155.548,69.665z M152.363,68.912c0,0,0.075,0.092,0.22,0.271c0.144,0.18,0.451,0.271,0.92,0.271
				c0.463,0,0.839-0.18,1.135-0.543c0.295-0.364,0.44-0.834,0.44-1.414c0-0.572-0.145-1.047-0.44-1.411
				c-0.296-0.364-0.672-0.546-1.135-0.546c-0.469,0-0.845,0.182-1.141,0.546c-0.295,0.364-0.44,0.839-0.44,1.411
				C151.923,68.078,152.068,68.548,152.363,68.912z"/>
			<path fill="#6ACBE1" d="M158.347,70.267c0,0-0.029,0.035-0.082,0.093c-0.058,0.063-0.18,0.093-0.371,0.093
				c-0.191,0-0.335-0.063-0.446-0.186c-0.11-0.121-0.167-0.284-0.167-0.498v-4.51c0-0.214,0.058-0.383,0.167-0.504
				c0.11-0.121,0.254-0.185,0.446-0.185c0.319,0,0.516,0.155,0.597,0.475c0.018,0.087,0.035,0.132,0.063,0.138
				c0.029,0.008,0.07-0.021,0.133-0.087c0.388-0.394,0.875-0.589,1.47-0.596c0.678,0,1.222,0.237,1.633,0.706
				c0.406,0.47,0.608,1.1,0.608,1.883v2.68c0,0.214-0.052,0.377-0.162,0.498c-0.11,0.122-0.26,0.186-0.451,0.186
				s-0.341-0.063-0.452-0.186c-0.11-0.121-0.167-0.284-0.167-0.498v-2.587c0-0.504-0.116-0.904-0.347-1.192
				c-0.232-0.29-0.556-0.436-0.967-0.436c-0.4,0-0.723,0.14-0.967,0.417c-0.249,0.277-0.371,0.648-0.371,1.105v2.692
				C158.514,69.983,158.456,70.146,158.347,70.267z"/>
			<path fill="#6ACBE1" d="M165.135,70.499c-0.62,0-1.117-0.129-1.494-0.388c-0.219-0.152-0.33-0.332-0.335-0.533
				c0-0.145,0.052-0.266,0.15-0.365c0.098-0.099,0.214-0.146,0.347-0.146c0.07,0,0.203,0.042,0.406,0.129
				c0.371,0.174,0.666,0.259,0.886,0.259c0.237,0,0.435-0.068,0.591-0.201c0.156-0.134,0.231-0.308,0.231-0.521
				c0-0.203-0.081-0.383-0.249-0.527c-0.168-0.146-0.365-0.271-0.603-0.375c-0.237-0.1-0.48-0.216-0.718-0.337
				c-0.243-0.122-0.446-0.296-0.613-0.525c-0.168-0.227-0.249-0.512-0.249-0.841c0-0.491,0.185-0.887,0.55-1.182
				s0.851-0.445,1.453-0.445c0.411,0,0.747,0.07,1.02,0.202c0.271,0.127,0.404,0.307,0.404,0.533c0,0.155-0.058,0.29-0.174,0.388
				c-0.114,0.105-0.267,0.155-0.445,0.155c-0.122,0-0.26-0.039-0.422-0.121c-0.169-0.074-0.319-0.116-0.452-0.116
				c-0.197,0-0.359,0.053-0.48,0.163c-0.122,0.111-0.186,0.243-0.186,0.412c0,0.174,0.087,0.324,0.256,0.451
				c0.167,0.134,0.376,0.248,0.618,0.353c0.237,0.104,0.481,0.22,0.719,0.349c0.237,0.132,0.439,0.316,0.607,0.562
				c0.168,0.248,0.255,0.543,0.255,0.892c0,0.538-0.186,0.966-0.562,1.29S165.767,70.499,165.135,70.499z"/>
		</g>
	</g>
</g>
<g id="Layer_3" display="none">
	<g display="inline">
		<g>
			<g>
				<path fill="#6ACBE1" d="M125.558,30.93v0.255c0.052-0.111,0.429-0.641,1.207-1.16c0.774-0.517,1.63-0.776,2.553-0.776
					c0.653,0,1.322,0.038,1.936,0.642l-1.942,3.986c-0.414-0.041-0.591-0.207-0.973-0.207c-0.778,0-1.437,0.484-1.973,1.448
					c-0.537,0.959-0.806,2.848-0.806,5.664l0.017,0.979l-0.017,6.042h-5.056l0.057-16.883"/>
				<path fill="#6ACBE1" d="M125.558,30.883c0,1.345-1.028,2.499-2.497,2.499c-1.382,0-2.5-1.116-2.5-2.499
					c0-1.38,1.118-2.496,2.5-2.496C124.44,28.387,125.558,29.503,125.558,30.883"/>
				<path fill="#6ACBE1" d="M132.009,31.583c0,1.249-0.956,2.322-2.325,2.322c-1.282,0-2.325-1.04-2.325-2.322
					c0-1.284,1.043-2.324,2.325-2.324C130.969,29.26,132.009,30.299,132.009,31.583"/>
				<path fill="#6ACBE1" d="M37.984,41.105h-13.89c0.231,1.434,0.859,2.575,1.879,3.418c1.016,0.848,2.314,1.265,3.894,1.265
					c1.835,0,3.415-0.619,4.748-1.865c0.04-0.035,0.736-0.718,0.774-0.758l3.46,2.853c-1.063,1.508-2.189,2.412-3.669,3.133
					c-1.482,0.723-3.241,1.083-5.276,1.083c-3.161,0-5.734-0.997-7.72-2.989c-1.987-1.994-2.98-4.49-2.98-7.489
					c0-3.076,0.991-5.625,2.97-7.656c1.982-2.028,4.466-3.041,7.451-3.041c3.174,0,5.75,1.012,7.74,3.041
					c1.541,1.575,2.433,3.543,2.829,5.893c0.288,1.716-0.104,0.567-0.497,1.512L37.984,41.105z M35.273,37.127
					c-0.331-1.124-0.993-2.036-1.972-2.741c-0.983-0.702-2.123-1.054-3.422-1.054c-1.408,0-2.647,0.396-3.71,1.183
					c-0.665,0.495-1.285,1.367-1.853,2.611H35.273z"/>
				<path fill="#6ACBE1" d="M39.154,44.874c0,1.254-1.016,2.27-2.271,2.27c-1.25,0-2.267-1.016-2.267-2.27
					c0-1.252,1.017-2.268,2.267-2.268C38.138,42.606,39.154,43.621,39.154,44.874"/>
				<path fill="#6ACBE1" d="M40.296,38.794c0,1.278-1.036,2.315-2.315,2.315c-1.278,0-2.315-1.037-2.315-2.315
					c0-1.274,1.037-2.312,2.315-2.312C39.26,36.482,40.296,37.52,40.296,38.794"/>
				<path fill="#6ACBE1" d="M13.058,23.12v5.43l2.543,0.005l0.01,2.094l0.003,2.153h-1.602h-0.955v9.805
					c0,0.843,0.029,1.488,0.086,1.939c0.062,0.45,0.218,0.819,0.473,1.101c0.255,0.282,0.675,0.423,1.252,0.423
					c0.312,0,0.745-0.034,1.275-0.168c0.138-0.032,0.433-0.11,0.433-0.11l0.509,0.344c0,0,0.959-0.658,1.648,0.479
					c0.688,1.138-0.393,2.018-0.393,2.018l-0.044,0.544c0,0-0.33,0.22-0.618,0.354c-0.902,0.425-2.3,0.693-4.073,0.693
					c-1.677,0-2.948-0.284-3.814-0.846c-0.865-0.564-1.432-1.348-1.7-2.342c-0.272-0.998-0.403-2.326-0.403-3.992l-0.01-10.24H6.995
					h-1.69l0.027-2.118v-2.129h1.768h0.59V23.12"/>
				<path fill="#6ACBE1" d="M13.054,23.141c0,1.478-1.198,2.684-2.682,2.684c-1.482,0-2.683-1.206-2.683-2.684
					c0-1.483,1.201-2.686,2.683-2.686C11.856,20.455,13.054,21.657,13.054,23.141"/>
				<path fill="#6ACBE1" d="M17.753,30.677c0,1.175-0.952,2.128-2.123,2.128c-1.177,0-2.127-0.953-2.127-2.128
					c0-1.174,0.95-2.122,2.127-2.122C16.802,28.555,17.753,29.503,17.753,30.677"/>
				<path fill="#6ACBE1" d="M18.966,46.995C19.318,48,18.788,49.1,17.781,49.45c-1.003,0.35-2.104-0.179-2.456-1.181
					c-0.348-1.006,0.181-2.105,1.184-2.457C17.516,45.46,18.616,45.99,18.966,46.995"/>
				<path fill="#6ACBE1" d="M7.438,30.677c0,1.175-0.954,2.128-2.126,2.128c-1.175,0-2.128-0.953-2.128-2.128
					c0-1.174,0.953-2.122,2.128-2.122C6.484,28.555,7.438,29.503,7.438,30.677"/>
				<path fill="#6ACBE1" d="M110.98,30.946l5.065-0.014v16.87l-0.007,0.138l-5.032,0.007l-0.016-0.199v-0.161
					c-0.987,0.938-1.977,1.616-2.965,2.027c-0.993,0.415-2.071,0.621-3.228,0.621c-2.601,0-4.852-1.011-6.75-3.026
					c-1.899-2.019-2.845-4.528-2.845-7.528c0-3.111,0.916-5.657,2.754-7.643c1.838-1.985,4.066-2.978,6.693-2.978
					c1.207,0,2.342,0.227,3.401,0.684c1.061,0.451,2.04,1.14,2.939,2.052L110.98,30.946z M105.68,33.722
					c-1.564,0-2.862,0.549-3.895,1.657c-1.033,1.103-1.55,2.518-1.55,4.247c0,1.739,0.528,3.169,1.58,4.295
					c1.051,1.123,2.345,1.683,3.882,1.683c1.586,0,2.904-0.549,3.948-1.656c1.047-1.106,1.566-2.551,1.566-4.343
					c0-1.751-0.519-3.171-1.566-4.258C108.601,34.265,107.279,33.722,105.68,33.722"/>
				<path fill="#6ACBE1" d="M116.039,30.911c0,1.361-1.037,2.528-2.525,2.528c-1.396,0-2.526-1.132-2.526-2.528
					c0-1.395,1.13-2.524,2.526-2.524C114.908,28.387,116.039,29.517,116.039,30.911"/>
				<path fill="#6ACBE1" d="M116.039,47.767c0,1.359-1.037,2.528-2.525,2.528c-1.396,0-2.526-1.132-2.526-2.528
					c0-1.392,1.13-2.522,2.526-2.522C114.908,45.245,116.039,46.376,116.039,47.767"/>
				<polyline fill="#6ACBE1" points="48.005,40.077 48.002,47.805 45.325,47.805 42.661,47.795 42.664,23.114 45.224,23.114 
					48.002,23.114 48.005,37.452 				"/>
				<path fill="#6ACBE1" d="M47.999,23.115c0,1.475-1.194,2.669-2.667,2.669c-1.474,0-2.668-1.194-2.668-2.669
					c0-1.472,1.194-2.666,2.668-2.666C46.805,20.45,47.999,21.644,47.999,23.115"/>
				<path fill="#6ACBE1" d="M47.999,47.639c0,1.471-1.198,2.666-2.671,2.666c-1.476,0-2.671-1.195-2.671-2.666
					c0-1.479,1.195-2.677,2.671-2.677C46.8,44.962,47.999,46.16,47.999,47.639"/>
				<path fill="#6ACBE1" d="M51.206,38.191l7.413,8.193c0,0,0.856,1.324-0.448,2.739c-1.305,1.417-3.128,0.286-3.128,0.286
					L44.976,38.137"/>
				<path fill="#6ACBE1" d="M51.149,38.548l6.126-6.507c0,0,0.989-2.042-0.55-3.195c-1.547-1.149-3.259,0.369-3.259,0.369
					l-5.612,5.852l-2.882,3.072"/>
				<path fill="#6ACBE1" d="M57.664,30.717c0,1.296-1.049,2.347-2.344,2.347c-1.292,0-2.342-1.051-2.342-2.347
					c0-1.294,1.049-2.343,2.342-2.343C56.615,28.374,57.664,29.423,57.664,30.717"/>
				<path fill="#6ACBE1" d="M59.209,47.953c0,1.295-1.049,2.342-2.343,2.342c-1.296,0-2.345-1.047-2.345-2.342
					c0-1.294,1.049-2.345,2.345-2.345C58.16,45.608,59.209,46.659,59.209,47.953"/>
				<path fill="#6ACBE1" d="M61.636,30.939l2.426-0.009l2.63,0.002v0.958c0.861-0.95,1.821-1.661,2.877-2.131
					c1.058-0.469,2.212-0.699,3.456-0.699c1.262,0,2.396,0.304,3.408,0.925c1.014,0.614,1.829,1.516,2.447,2.699
					c0.802-1.183,1.788-2.085,2.955-2.699c1.168-0.622,2.442-0.925,3.825-0.925c1.432,0,2.689,0.331,3.781,0.994
					c1.086,0.669,1.865,1.541,2.341,2.615c0.477,1.073,0.714,2.818,0.714,5.235V47.94h-5.089v-8.444
					c0-2.282-0.289-3.828-0.853-4.637c-0.569-0.808-1.418-1.21-2.555-1.21c-0.865,0-1.641,0.248-2.325,0.74
					c-0.682,0.494-1.193,1.175-1.528,2.044c-0.333,0.869-0.54,2.458-0.496,4.195v7.178l-5.092-0.004v-7.844
					c0-1.801-0.134-3.106-0.401-3.915c-0.265-0.805-0.667-1.409-1.197-1.803c-0.53-0.396-1.175-0.593-1.93-0.593
					c-0.841,0-1.607,0.251-2.291,0.75c-0.688,0.498-1.202,1.197-1.54,2.097c-0.342,0.904-0.51,2.321-0.51,4.257v7.049l-5.056-0.003
					V30.939z"/>
				<path fill="#6ACBE1" d="M92.5,47.754c0,1.367-1.042,2.544-2.542,2.544c-1.405,0-2.545-1.137-2.545-2.544
					c0-1.404,1.14-2.544,2.545-2.544C91.365,45.209,92.5,46.35,92.5,47.754"/>
				<path fill="#6ACBE1" d="M66.692,30.926c0,1.401-1.131,2.534-2.53,2.534c-1.398,0-2.529-1.133-2.529-2.534
					c0-1.395,1.131-2.529,2.529-2.529C65.562,28.396,66.692,29.531,66.692,30.926"/>
				<polyline fill="#6ACBE1" points="139.245,40.077 139.241,47.805 136.564,47.805 133.901,47.795 133.901,23.114 136.46,23.114 
					139.241,23.114 139.245,37.452 				"/>
				<path fill="#6ACBE1" d="M139.238,23.115c0,1.475-1.194,2.669-2.667,2.669s-2.667-1.194-2.667-2.669
					c0-1.472,1.195-2.666,2.667-2.666S139.238,21.644,139.238,23.115"/>
				<path fill="#6ACBE1" d="M139.238,47.639c0,1.471-1.194,2.666-2.671,2.666c-1.476,0-2.672-1.195-2.672-2.666
					c0-1.479,1.196-2.677,2.672-2.677C138.043,44.962,139.238,46.16,139.238,47.639"/>
				<path fill="#6ACBE1" d="M142.446,38.191l7.414,8.193c0,0,0.853,1.324-0.449,2.739c-1.305,1.417-3.131,0.286-3.131,0.286
					l-10.065-11.271"/>
				<path fill="#6ACBE1" d="M142.389,38.548l6.126-6.507c0,0,0.991-2.042-0.552-3.195c-1.542-1.149-3.257,0.369-3.257,0.369
					l-5.611,5.852l-2.882,3.072"/>
				<path fill="#6ACBE1" d="M148.904,30.717c0,1.296-1.05,2.347-2.345,2.347c-1.292,0-2.342-1.051-2.342-2.347
					c0-1.294,1.05-2.343,2.342-2.343C147.854,28.374,148.904,29.423,148.904,30.717"/>
				<path fill="#6ACBE1" d="M150.447,47.953c0,1.295-1.046,2.342-2.345,2.342c-1.292,0-2.342-1.047-2.342-2.342
					c0-1.294,1.05-2.345,2.342-2.345C149.401,45.608,150.447,46.659,150.447,47.953"/>
				<path fill="#0DC0E2" d="M19.271,41.105c0,0-0.051-0.847-0.07-1.351c-0.036-0.932,0.271-2.65,0.271-2.65l4.838,0.027
					c-0.767,1.737-0.222,3.974-0.222,3.974"/>
				<path fill="#0DC0E2" d="M110.99,37.811v-6.015c1.905,1.935,3.178,4.752,3.178,7.846c0,3.232-1.342,5.784-3.178,7.944v-6.105"/>
				<polyline fill="#0DC0E2" points="13.054,28.557 13.058,32.802 7.681,32.798 7.689,28.549 				"/>
				<path fill="#0DC0E2" d="M66.699,39.534c0,0.964,0.003-0.65,0.003,1.29v6.975l-5.053,0.003c0,0,0.01-1.204,0-2.242
					c0-7.255,5.038-13.67,5.038-13.67"/>
				<path fill="#0DC0E2" d="M74.56,47.747c0.004-0.457,0.005-1.417,0-2.183c0-8.434,4.321-12.871,4.321-12.871
					c0.979,3.255,0.771,6.845,0.771,6.845c0,0.962-0.013-0.657-0.013,1.283l0.006,6.932"/>
				<path fill="#0DC0E2" d="M66.699,47.775c0,1.362-1.04,2.53-2.533,2.53c-1.396,0-2.53-1.129-2.53-2.53
					c0-1.396,1.133-2.529,2.53-2.529C65.564,45.245,66.699,46.379,66.699,47.775"/>
				<path fill="#0DC0E2" d="M79.655,47.747c0,1.369-1.043,2.548-2.542,2.548c-1.406,0-2.547-1.141-2.547-2.548
					c0-1.405,1.142-2.542,2.547-2.542S79.655,46.343,79.655,47.747"/>
				<path fill="#0DC0E2" d="M125.555,39.542c0,0.938,0.003-0.633,0.003,1.254v7.006H120.5c0,0,0.014-0.795,0-1.804
					c0-9.369,5.058-14.795,5.058-14.795L125.555,39.542z"/>
				<path fill="#0DC0E2" d="M125.567,47.739c0,1.362-1.04,2.532-2.529,2.532c-1.4,0-2.534-1.134-2.534-2.532
					c0-1.4,1.133-2.529,2.534-2.529C124.433,45.209,125.567,46.339,125.567,47.739"/>
				<polygon fill="#0DC0E2" points="48.005,34.904 48.005,41.525 44.983,38.137 				"/>
				<polygon fill="#0DC0E2" points="139.245,34.904 139.245,41.525 136.233,38.146 				"/>
			</g>
		</g>
		<g>
			<path fill="#6ACBE1" d="M65.52,69.797c-1.291,0-2.329-0.267-3.113-0.809c-0.458-0.313-0.688-0.688-0.7-1.111
				c0-0.301,0.109-0.555,0.313-0.76c0.206-0.205,0.447-0.301,0.725-0.301c0.145,0,0.422,0.084,0.845,0.264
				c0.772,0.362,1.388,0.544,1.846,0.544c0.496,0,0.906-0.145,1.231-0.422c0.326-0.277,0.483-0.64,0.483-1.086
				c0-0.422-0.169-0.796-0.52-1.099c-0.349-0.3-0.759-0.566-1.254-0.785c-0.494-0.203-1.001-0.445-1.496-0.698
				c-0.506-0.254-0.929-0.616-1.279-1.098c-0.35-0.471-0.519-1.063-0.519-1.75c0-1.026,0.386-1.846,1.146-2.463
				c0.76-0.614,1.773-0.928,3.029-0.928c0.857,0,1.556,0.144,2.124,0.421c0.567,0.267,0.845,0.64,0.845,1.11
				c0,0.327-0.121,0.604-0.363,0.81c-0.242,0.216-0.555,0.325-0.929,0.325c-0.253,0-0.542-0.084-0.881-0.253
				c-0.35-0.157-0.664-0.241-0.941-0.241c-0.411,0-0.748,0.108-1.002,0.338c-0.252,0.229-0.386,0.506-0.386,0.856
				c0,0.361,0.181,0.676,0.531,0.941c0.351,0.277,0.784,0.518,1.291,0.735c0.495,0.218,1.001,0.459,1.497,0.725
				c0.494,0.277,0.917,0.663,1.266,1.169c0.35,0.52,0.531,1.136,0.531,1.859c0,1.123-0.387,2.015-1.17,2.689
				C67.885,69.458,66.835,69.797,65.52,69.797z"/>
			<path fill="#6ACBE1" d="M81.386,68.06c0,0-0.278,0.289-0.821,0.868c-0.543,0.58-1.689,0.869-3.439,0.869
				c-1.749,0-3.173-0.58-4.271-1.737c-1.097-1.159-1.641-2.667-1.641-4.514s0.543-3.342,1.641-4.512
				c1.098-1.16,2.522-1.738,4.271-1.738c1.75,0,3.162,0.578,4.26,1.738c1.098,1.17,1.641,2.665,1.641,4.512
				S82.484,66.901,81.386,68.06z M74.75,66.49c0,0,0.156,0.193,0.458,0.568c0.302,0.374,0.941,0.566,1.918,0.566
				c0.966,0,1.75-0.374,2.366-1.135c0.616-0.759,0.917-1.737,0.917-2.943c0-1.194-0.302-2.184-0.917-2.944
				c-0.615-0.76-1.4-1.134-2.366-1.134c-0.977,0-1.761,0.374-2.376,1.134c-0.616,0.761-0.917,1.75-0.917,2.944
				C73.833,64.752,74.134,65.731,74.75,66.49z"/>
			<path fill="#6ACBE1" d="M87.103,69.315c0,0-0.06,0.072-0.181,0.193c-0.109,0.131-0.362,0.192-0.76,0.192
				c-0.398,0-0.711-0.133-0.941-0.386c-0.23-0.255-0.351-0.593-0.351-1.04V53.519c0-0.422,0.121-0.771,0.351-1.025
				c0.229-0.253,0.543-0.387,0.941-0.387c0.398,0,0.712,0.134,0.941,0.387c0.23,0.254,0.338,0.604,0.338,1.025v14.756
				C87.44,68.722,87.333,69.06,87.103,69.315z"/>
			<path fill="#6ACBE1" d="M98.492,57.826c0,0,0.049-0.06,0.169-0.193c0.108-0.132,0.362-0.193,0.76-0.193
				c0.398,0,0.713,0.133,0.941,0.387c0.229,0.253,0.35,0.603,0.35,1.05v9.398c0,0.447-0.121,0.785-0.35,1.04
				c-0.229,0.253-0.543,0.386-0.941,0.386c-0.688,0-1.099-0.351-1.23-1.039c-0.037-0.18-0.073-0.277-0.133-0.288
				c-0.061,0-0.157,0.06-0.289,0.192c-0.76,0.821-1.774,1.231-3.065,1.231c-1.412,0-2.546-0.496-3.391-1.473
				c-0.856-0.978-1.279-2.281-1.279-3.909v-5.539c0-0.447,0.121-0.797,0.351-1.05c0.229-0.254,0.543-0.387,0.94-0.387
				c0.399,0,0.713,0.133,0.941,0.387c0.23,0.253,0.338,0.603,0.338,1.05v5.346c0,1.049,0.241,1.882,0.736,2.475
				c0.482,0.603,1.146,0.904,2.003,0.904c0.832,0,1.508-0.29,2.027-0.87c0.519-0.567,0.772-1.338,0.772-2.292v-5.563
				C98.143,58.429,98.263,58.079,98.492,57.826z"/>
			<path fill="#6ACBE1" d="M105.429,69.652c-0.398,0-0.712-0.121-0.942-0.374c-0.229-0.24-0.349-0.578-0.349-1.003v-8.179
				c0-0.157-0.084-0.243-0.266-0.254h-0.893c-0.374,0-0.676-0.109-0.881-0.314c-0.218-0.205-0.326-0.482-0.326-0.845
				c0-0.35,0.108-0.626,0.337-0.832c0.217-0.204,0.507-0.303,0.869-0.303h0.893c0.181,0,0.277-0.084,0.266-0.252v-1.533
				c0-0.423,0.12-0.76,0.349-1.014c0.23-0.241,0.544-0.361,0.942-0.361c0.374,0,0.688,0.12,0.929,0.374
				c0.229,0.253,0.35,0.591,0.35,1.001v1.533c0,0.156,0.097,0.241,0.277,0.252h1.086c0.362,0,0.652,0.099,0.881,0.303
				c0.218,0.206,0.326,0.482,0.326,0.832c0,0.352-0.108,0.628-0.326,0.834c-0.229,0.216-0.519,0.325-0.881,0.325h-1.086
				c-0.181,0-0.277,0.085-0.277,0.254v8.179c0,0.412-0.121,0.737-0.35,0.992C106.116,69.519,105.803,69.652,105.429,69.652z"/>
			<path fill="#6ACBE1" d="M113.318,55.691c0,0-0.073,0.072-0.205,0.205c-0.133,0.145-0.422,0.218-0.844,0.218
				c-0.435,0-0.784-0.146-1.05-0.423c-0.277-0.277-0.411-0.628-0.411-1.038c0-0.409,0.133-0.76,0.411-1.037
				c0.266-0.277,0.616-0.423,1.05-0.423c0.422,0,0.772,0.146,1.049,0.423c0.266,0.277,0.398,0.628,0.398,1.037
				C113.717,55.063,113.584,55.413,113.318,55.691z M113.209,69.315c0,0-0.06,0.072-0.18,0.193c-0.109,0.131-0.362,0.192-0.76,0.192
				c-0.399,0-0.712-0.133-0.941-0.386c-0.23-0.255-0.351-0.593-0.351-1.04v-9.423c0-0.423,0.121-0.772,0.351-1.025
				c0.229-0.254,0.542-0.387,0.941-0.387c0.398,0,0.711,0.133,0.94,0.387c0.229,0.253,0.338,0.603,0.338,1.025v9.423
				C113.547,68.722,113.439,69.06,113.209,69.315z"/>
			<path fill="#6ACBE1" d="M125.782,68.06c0,0-0.277,0.289-0.821,0.868c-0.543,0.58-1.689,0.869-3.438,0.869
				c-1.75,0-3.174-0.58-4.272-1.737c-1.098-1.159-1.641-2.667-1.641-4.514s0.543-3.342,1.641-4.512
				c1.098-1.16,2.522-1.738,4.272-1.738c1.749,0,3.161,0.578,4.259,1.738c1.099,1.17,1.641,2.665,1.641,4.512
				S126.88,66.901,125.782,68.06z M119.146,66.49c0,0,0.156,0.193,0.458,0.568c0.301,0.374,0.941,0.566,1.919,0.566
				c0.965,0,1.749-0.374,2.365-1.135c0.615-0.759,0.917-1.737,0.917-2.943c0-1.194-0.302-2.184-0.917-2.944
				c-0.616-0.76-1.4-1.134-2.365-1.134c-0.978,0-1.763,0.374-2.377,1.134c-0.616,0.761-0.917,1.75-0.917,2.944
				C118.229,64.752,118.529,65.731,119.146,66.49z"/>
			<path fill="#6ACBE1" d="M131.619,69.315c0,0-0.06,0.072-0.169,0.193c-0.121,0.131-0.374,0.192-0.772,0.192
				c-0.398,0-0.699-0.133-0.929-0.386c-0.229-0.255-0.35-0.593-0.35-1.04v-9.398c0-0.447,0.12-0.797,0.35-1.05
				c0.229-0.254,0.531-0.387,0.929-0.387c0.665,0,1.074,0.327,1.244,0.989c0.036,0.182,0.072,0.278,0.133,0.291
				c0.06,0.012,0.145-0.049,0.277-0.182c0.809-0.821,1.822-1.23,3.065-1.242c1.412,0,2.546,0.493,3.402,1.472
				c0.845,0.978,1.267,2.293,1.267,3.921v5.586c0,0.447-0.108,0.785-0.337,1.04c-0.23,0.253-0.543,0.386-0.941,0.386
				c-0.398,0-0.712-0.133-0.941-0.386c-0.229-0.255-0.35-0.593-0.35-1.04v-5.392c0-1.05-0.241-1.884-0.725-2.487
				c-0.482-0.603-1.158-0.904-2.015-0.904c-0.833,0-1.509,0.289-2.015,0.868c-0.52,0.581-0.772,1.353-0.772,2.307v5.608
				C131.97,68.722,131.849,69.06,131.619,69.315z"/>
			<path fill="#6ACBE1" d="M145.77,69.797c-1.291,0-2.328-0.267-3.113-0.809c-0.458-0.313-0.687-0.688-0.7-1.111
				c0-0.301,0.109-0.555,0.314-0.76c0.204-0.205,0.446-0.301,0.724-0.301c0.145,0,0.422,0.084,0.845,0.264
				c0.772,0.362,1.387,0.544,1.846,0.544c0.494,0,0.904-0.145,1.23-0.422c0.326-0.277,0.482-0.64,0.482-1.086
				c0-0.422-0.168-0.796-0.519-1.099c-0.35-0.3-0.76-0.566-1.254-0.785c-0.495-0.203-1.001-0.445-1.496-0.698
				c-0.507-0.254-0.93-0.616-1.28-1.098c-0.35-0.471-0.519-1.063-0.519-1.75c0-1.026,0.386-1.846,1.147-2.463
				c0.759-0.614,1.773-0.928,3.028-0.928c0.856,0,1.557,0.144,2.125,0.421c0.566,0.267,0.844,0.64,0.844,1.11
				c0,0.327-0.121,0.604-0.361,0.81c-0.242,0.216-0.555,0.325-0.93,0.325c-0.253,0-0.543-0.084-0.881-0.253
				c-0.35-0.157-0.664-0.241-0.941-0.241c-0.41,0-0.748,0.108-1.001,0.338c-0.254,0.229-0.387,0.506-0.387,0.856
				c0,0.361,0.182,0.676,0.531,0.941c0.35,0.277,0.785,0.518,1.292,0.735c0.495,0.218,1.001,0.459,1.496,0.725
				c0.495,0.277,0.917,0.663,1.268,1.169c0.349,0.52,0.53,1.136,0.53,1.859c0,1.123-0.385,2.015-1.17,2.689
				C148.136,69.458,147.085,69.797,145.77,69.797z"/>
		</g>
	</g>
</g>
<g id="Layer_4">
	<g id="Layer_2_1_">
		<g>
			<g>
				<g>
					<path fill="#6ACBE1" d="M136.598,38.36v0.281c0.059-0.123,0.471-0.706,1.327-1.275c0.85-0.568,1.79-0.853,2.803-0.853
						c0.717,0,1.452,0.043,2.126,0.706l-2.134,4.378c-0.454-0.044-0.648-0.226-1.067-0.226c-0.854,0-1.578,0.53-2.168,1.589
						c-0.59,1.055-0.884,3.127-0.884,6.221l0.018,1.076l-0.018,6.635h-5.553l0.062-18.543"/>
					<path fill="#6ACBE1" d="M136.598,38.308c0,1.476-1.127,2.744-2.742,2.744c-1.519,0-2.746-1.226-2.746-2.744
						c0-1.516,1.227-2.742,2.746-2.742C135.371,35.566,136.598,36.792,136.598,38.308"/>
					<path fill="#6ACBE1" d="M143.683,39.076c0,1.371-1.05,2.55-2.553,2.55c-1.407,0-2.553-1.142-2.553-2.55
						c0-1.409,1.145-2.551,2.553-2.551C142.541,36.525,143.683,37.667,143.683,39.076"/>
					<path fill="#6ACBE1" d="M40.414,49.533H25.158c0.253,1.575,0.943,2.829,2.063,3.757c1.117,0.93,2.543,1.388,4.278,1.388
						c2.015,0,3.75-0.682,5.215-2.049c0.043-0.038,0.808-0.788,0.851-0.831l3.801,3.132c-1.167,1.655-2.405,2.649-4.029,3.441
						c-1.628,0.794-3.56,1.192-5.797,1.192c-3.47,0-6.298-1.098-8.479-3.285c-2.182-2.19-3.273-4.93-3.273-8.224
						c0-3.379,1.088-6.18,3.262-8.41c2.177-2.227,4.906-3.34,8.184-3.34c3.485,0,6.315,1.113,8.501,3.34
						c1.692,1.73,2.671,3.891,3.107,6.47c0.318,1.887-0.114,0.624-0.546,1.664L40.414,49.533z M37.436,45.164
						c-0.364-1.234-1.091-2.235-2.167-3.01c-1.079-0.771-2.332-1.157-3.758-1.157c-1.547,0-2.908,0.434-4.076,1.3
						c-0.729,0.542-1.411,1.501-2.034,2.867H37.436z"/>
					<path fill="#6ACBE1" d="M41.699,53.674c0,1.378-1.117,2.494-2.495,2.494c-1.374,0-2.49-1.116-2.49-2.494
						c0-1.376,1.116-2.491,2.49-2.491C40.583,51.183,41.699,52.298,41.699,53.674"/>
					<path fill="#6ACBE1" d="M42.953,46.996c0,1.404-1.138,2.543-2.542,2.543c-1.404,0-2.543-1.139-2.543-2.543
						c0-1.4,1.14-2.539,2.543-2.539C41.814,44.457,42.953,45.597,42.953,46.996"/>
					<path fill="#6ACBE1" d="M13.035,29.781v5.964l2.793,0.005l0.01,2.299l0.004,2.364h-1.758h-1.05v10.771
						c0,0.926,0.033,1.633,0.096,2.129c0.067,0.494,0.239,0.898,0.518,1.21c0.28,0.311,0.741,0.464,1.375,0.464
						c0.343,0,0.819-0.034,1.401-0.184c0.152-0.037,0.475-0.12,0.475-0.12l0.56,0.376c0,0,1.054-0.724,1.81,0.526
						c0.755,1.25-0.431,2.217-0.431,2.217l-0.049,0.595c0,0-0.361,0.244-0.678,0.391c-0.99,0.468-2.526,0.761-4.472,0.761
						c-1.843,0-3.239-0.311-4.19-0.928c-0.95-0.622-1.573-1.48-1.867-2.575c-0.299-1.093-0.442-2.553-0.442-4.384L7.128,40.415
						H6.376H4.52l0.03-2.326V35.75h1.942H7.14v-5.97"/>
					<path fill="#6ACBE1" d="M13.032,29.804c0,1.624-1.315,2.947-2.946,2.947c-1.628,0-2.948-1.323-2.948-2.947
						c0-1.629,1.318-2.949,2.948-2.949C11.717,26.855,13.032,28.175,13.032,29.804"/>
					<path fill="#6ACBE1" d="M18.193,38.082c0,1.29-1.046,2.336-2.332,2.336c-1.293,0-2.336-1.046-2.336-2.336
						s1.043-2.331,2.336-2.331C17.147,35.751,18.193,36.792,18.193,38.082"/>
					<path fill="#6ACBE1" d="M19.525,56.004c0.386,1.104-0.196,2.313-1.302,2.699c-1.101,0.384-2.31-0.198-2.696-1.3
						c-0.383-1.104,0.199-2.312,1.301-2.697C17.933,54.317,19.141,54.899,19.525,56.004"/>
					<path fill="#6ACBE1" d="M6.863,38.082c0,1.29-1.048,2.336-2.336,2.336c-1.289,0-2.336-1.046-2.336-2.336
						s1.047-2.331,2.336-2.331C5.815,35.751,6.863,36.792,6.863,38.082"/>
					<path fill="#6ACBE1" d="M120.588,38.376l5.563-0.015v18.527l-0.007,0.153l-5.528,0.005l-0.019-0.218v-0.176
						c-1.083,1.029-2.171,1.771-3.257,2.224c-1.09,0.455-2.274,0.685-3.544,0.685c-2.856,0-5.329-1.112-7.413-3.324
						c-2.085-2.218-3.125-4.975-3.125-8.269c0-3.418,1.005-6.214,3.025-8.394c2.019-2.181,4.466-3.272,7.352-3.272
						c1.325,0,2.573,0.25,3.736,0.751c1.164,0.496,2.24,1.253,3.228,2.256L120.588,38.376z M114.767,41.425
						c-1.719,0-3.144,0.605-4.278,1.82c-1.135,1.211-1.702,2.767-1.702,4.666c0,1.911,0.58,3.479,1.734,4.716
						c1.154,1.234,2.577,1.85,4.264,1.85c1.742,0,3.191-0.602,4.336-1.819c1.149-1.213,1.72-2.8,1.72-4.767
						c0-1.923-0.57-3.483-1.72-4.677C117.975,42.022,116.522,41.425,114.767,41.425"/>
					<path fill="#6ACBE1" d="M126.144,38.34c0,1.494-1.14,2.777-2.774,2.777c-1.534,0-2.775-1.244-2.775-2.777
						s1.242-2.774,2.775-2.774C124.902,35.566,126.144,36.807,126.144,38.34"/>
					<path fill="#6ACBE1" d="M126.144,56.853c0,1.492-1.14,2.776-2.774,2.776c-1.534,0-2.775-1.243-2.775-2.776
						c0-1.527,1.242-2.77,2.775-2.77C124.902,54.083,126.144,55.325,126.144,56.853"/>
					<polyline fill="#6ACBE1" points="51.42,48.407 51.416,56.896 48.477,56.896 45.55,56.882 45.553,29.774 48.365,29.774 
						51.416,29.774 51.42,45.523 					"/>
					<path fill="#6ACBE1" d="M51.412,29.777c0,1.619-1.312,2.93-2.929,2.93c-1.62,0-2.932-1.312-2.932-2.93
						c0-1.618,1.312-2.929,2.932-2.929C50.102,26.848,51.412,28.16,51.412,29.777"/>
					<path fill="#6ACBE1" d="M51.412,56.71c0,1.617-1.315,2.928-2.934,2.928c-1.622,0-2.933-1.311-2.933-2.928
						c0-1.622,1.312-2.938,2.933-2.938C50.097,53.772,51.412,55.088,51.412,56.71"/>
					<path fill="#6ACBE1" d="M54.935,46.334l8.142,8.998c0,0,0.94,1.454-0.493,3.011c-1.432,1.553-3.435,0.314-3.435,0.314
						L48.092,46.275"/>
					<path fill="#6ACBE1" d="M54.872,46.725l6.729-7.147c0,0,1.086-2.242-0.604-3.508c-1.699-1.262-3.579,0.407-3.579,0.407
						l-6.164,6.426l-3.165,3.375"/>
					<path fill="#6ACBE1" d="M62.028,38.125c0,1.423-1.152,2.577-2.576,2.577c-1.419,0-2.571-1.154-2.571-2.577
						c0-1.422,1.152-2.575,2.571-2.575C60.875,35.552,62.028,36.704,62.028,38.125"/>
					<path fill="#6ACBE1" d="M63.727,57.057c0,1.423-1.154,2.572-2.575,2.572c-1.424,0-2.576-1.149-2.576-2.572
						s1.151-2.578,2.576-2.578C62.574,54.479,63.727,55.634,63.727,57.057"/>
					<path fill="#6ACBE1" d="M66.392,38.369l2.664-0.01l2.89,0.002v1.051c0.945-1.043,1.999-1.826,3.161-2.341
						c1.161-0.514,2.429-0.769,3.795-0.769c1.386,0,2.631,0.335,3.743,1.018c1.114,0.672,2.009,1.665,2.687,2.965
						c0.882-1.3,1.965-2.292,3.246-2.965c1.283-0.683,2.684-1.018,4.203-1.018c1.571,0,2.953,0.363,4.152,1.093
						c1.194,0.734,2.048,1.692,2.572,2.872c0.523,1.18,0.784,3.096,0.784,5.751v11.023h-5.59v-9.277
						c0-2.507-0.316-4.203-0.936-5.094c-0.625-0.886-1.558-1.328-2.806-1.328c-0.95,0-1.802,0.271-2.554,0.813
						c-0.749,0.543-1.309,1.289-1.677,2.245c-0.366,0.954-0.593,2.701-0.545,4.606v7.885l-5.594-0.004v-8.615
						c0-1.977-0.147-3.411-0.439-4.298c-0.292-0.885-0.732-1.547-1.314-1.981c-0.583-0.434-1.291-0.651-2.119-0.651
						c-0.925,0-1.766,0.276-2.518,0.825c-0.756,0.546-1.32,1.315-1.69,2.301c-0.376,0.994-0.56,2.55-0.56,4.677v7.741l-5.554-0.004
						L66.392,38.369L66.392,38.369z"/>
					<path fill="#6ACBE1" d="M100.291,56.838c0,1.5-1.145,2.794-2.792,2.794c-1.544,0-2.796-1.248-2.796-2.794
						c0-1.542,1.252-2.796,2.796-2.796S100.291,55.294,100.291,56.838"/>
					<path fill="#6ACBE1" d="M71.944,38.355c0,1.539-1.242,2.783-2.779,2.783c-1.537,0-2.778-1.243-2.778-2.783
						c0-1.532,1.241-2.778,2.778-2.778C70.703,35.576,71.944,36.821,71.944,38.355"/>
					<polyline fill="#6ACBE1" points="151.631,48.407 151.627,56.896 148.687,56.896 145.763,56.882 145.763,29.774 148.573,29.774 
						151.627,29.774 151.631,45.523 					"/>
					<path fill="#6ACBE1" d="M151.624,29.777c0,1.619-1.311,2.93-2.93,2.93c-1.616,0-2.929-1.312-2.929-2.93
						c0-1.618,1.313-2.929,2.929-2.929C150.313,26.848,151.624,28.16,151.624,29.777"/>
					<path fill="#6ACBE1" d="M151.624,56.71c0,1.617-1.311,2.928-2.933,2.928c-1.621,0-2.935-1.311-2.935-2.928
						c0-1.622,1.314-2.938,2.935-2.938C150.313,53.772,151.624,55.088,151.624,56.71"/>
					<path fill="#6ACBE1" d="M155.147,46.334l8.144,8.998c0,0,0.937,1.454-0.494,3.011c-1.433,1.554-3.437,0.314-3.437,0.314
						l-11.055-12.383"/>
					<path fill="#6ACBE1" d="M155.084,46.725l6.729-7.147c0,0,1.088-2.242-0.607-3.508c-1.692-1.262-3.576,0.407-3.576,0.407
						l-6.164,6.426l-3.166,3.375"/>
					<path fill="#6ACBE1" d="M162.239,38.125c0,1.423-1.153,2.577-2.575,2.577c-1.419,0-2.572-1.154-2.572-2.577
						c0-1.422,1.153-2.575,2.572-2.575C161.086,35.552,162.239,36.704,162.239,38.125"/>
					<path fill="#6ACBE1" d="M163.936,57.057c0,1.423-1.15,2.572-2.577,2.572c-1.418,0-2.572-1.149-2.572-2.572
						s1.153-2.578,2.572-2.578C162.786,54.479,163.936,55.634,163.936,57.057"/>
					<path fill="#0DC0E2" d="M19.861,49.533c0,0-0.057-0.929-0.079-1.484c-0.04-1.022,0.298-2.911,0.298-2.911l5.314,0.031
						c-0.842,1.907-0.244,4.365-0.244,4.365"/>
					<path fill="#0DC0E2" d="M120.598,45.916v-6.605c2.093,2.124,3.491,5.22,3.491,8.618c0,3.548-1.473,6.352-3.491,8.725v-6.707"/>
					<polyline fill="#0DC0E2" points="13.032,35.753 13.035,40.415 7.131,40.41 7.14,35.743 					"/>
					<path fill="#0DC0E2" d="M71.951,47.81c0,1.059,0.004-0.715,0.004,1.416v7.661l-5.55,0.004c0,0,0.011-1.322,0-2.463
						c0-7.968,5.534-15.014,5.534-15.014"/>
					<path fill="#0DC0E2" d="M80.585,56.832c0.005-0.503,0.006-1.559,0-2.399c0-9.264,4.745-14.134,4.745-14.134
						c1.077,3.575,0.849,7.516,0.849,7.516c0,1.057-0.015-0.721-0.015,1.41l0.007,7.614"/>
					<path fill="#0DC0E2" d="M71.951,56.861c0,1.495-1.141,2.777-2.782,2.777c-1.533,0-2.778-1.242-2.778-2.777
						c0-1.534,1.245-2.779,2.778-2.779C70.705,54.083,71.951,55.328,71.951,56.861"/>
					<path fill="#0DC0E2" d="M86.181,56.832c0,1.501-1.145,2.797-2.791,2.797c-1.545,0-2.798-1.252-2.798-2.797
						c0-1.543,1.253-2.795,2.798-2.795C84.933,54.037,86.181,55.289,86.181,56.832"/>
					<path fill="#0DC0E2" d="M136.595,47.818c0,1.032,0.002-0.696,0.002,1.377v7.695h-5.554c0,0,0.015-0.873,0-1.981
						c0-10.292,5.554-16.251,5.554-16.251L136.595,47.818z"/>
					<path fill="#0DC0E2" d="M136.607,56.821c0,1.495-1.141,2.781-2.777,2.781c-1.538,0-2.782-1.246-2.782-2.781
						c0-1.538,1.244-2.778,2.782-2.778C135.363,54.042,136.607,55.282,136.607,56.821"/>
					<polygon fill="#0DC0E2" points="51.42,42.725 51.42,49.996 48.101,46.275 					"/>
					<polygon fill="#0DC0E2" points="151.631,42.725 151.631,49.996 148.323,46.284 					"/>
					<g>
						<path fill="#F26F21" d="M124.983,66.755c0,0.31-0.077,0.57-0.229,0.792c-0.151,0.22-0.367,0.387-0.666,0.498
							c-0.292,0.112-0.646,0.169-1.066,0.169c-0.401,0-0.744-0.059-1.035-0.183c-0.284-0.122-0.495-0.278-0.63-0.462
							c-0.136-0.185-0.203-0.364-0.203-0.55c0-0.124,0.046-0.227,0.129-0.315c0.089-0.09,0.195-0.133,0.334-0.133
							c0.116,0,0.208,0.031,0.267,0.082c0.065,0.06,0.125,0.142,0.185,0.245c0.111,0.198,0.246,0.351,0.406,0.445
							c0.16,0.096,0.378,0.148,0.653,0.148c0.222,0,0.407-0.053,0.55-0.153c0.145-0.098,0.218-0.208,0.218-0.338
							c0-0.194-0.081-0.34-0.224-0.43c-0.151-0.093-0.394-0.176-0.733-0.259c-0.388-0.096-0.701-0.196-0.945-0.299
							c-0.238-0.105-0.429-0.245-0.574-0.416c-0.143-0.171-0.218-0.384-0.218-0.634c0-0.221,0.065-0.436,0.2-0.634
							c0.137-0.197,0.332-0.358,0.592-0.475c0.259-0.118,0.572-0.178,0.945-0.178c0.286,0,0.544,0.028,0.776,0.086
							c0.232,0.062,0.42,0.144,0.578,0.244c0.151,0.103,0.269,0.214,0.35,0.334c0.078,0.125,0.121,0.242,0.121,0.36
							c0,0.13-0.043,0.235-0.128,0.313c-0.084,0.084-0.207,0.125-0.368,0.125c-0.118,0-0.21-0.034-0.292-0.101
							c-0.082-0.062-0.174-0.164-0.277-0.295c-0.083-0.109-0.184-0.193-0.298-0.258c-0.114-0.066-0.273-0.102-0.464-0.102
							c-0.207,0-0.373,0.042-0.505,0.129c-0.133,0.089-0.203,0.193-0.203,0.319c0,0.118,0.051,0.22,0.15,0.294
							c0.094,0.072,0.229,0.139,0.396,0.187c0.167,0.046,0.393,0.105,0.684,0.18c0.347,0.081,0.634,0.186,0.852,0.3
							c0.217,0.117,0.384,0.256,0.498,0.417C124.924,66.366,124.983,66.553,124.983,66.755"/>
						<path fill="#F26F21" d="M126.491,63.154c-0.157,0-0.288-0.044-0.4-0.14c-0.114-0.097-0.164-0.23-0.164-0.405
							c0-0.157,0.058-0.287,0.168-0.391c0.11-0.104,0.243-0.155,0.395-0.155c0.143,0,0.273,0.051,0.383,0.142
							c0.11,0.094,0.165,0.227,0.165,0.405c0,0.174-0.053,0.306-0.162,0.403C126.771,63.11,126.642,63.154,126.491,63.154
							 M127.039,64.308v3.228c0,0.225-0.049,0.392-0.155,0.51c-0.107,0.11-0.243,0.169-0.408,0.169
							c-0.163,0-0.295-0.059-0.398-0.173c-0.101-0.119-0.15-0.288-0.15-0.506v-3.194c0-0.219,0.05-0.384,0.15-0.496
							c0.104-0.113,0.235-0.169,0.398-0.169c0.165,0,0.303,0.056,0.408,0.169C126.991,63.959,127.039,64.11,127.039,64.308"/>
						<path fill="#F26F21" d="M129.209,64.293v0.135c0.195-0.258,0.409-0.448,0.642-0.57c0.235-0.122,0.5-0.182,0.806-0.182
							c0.295,0,0.558,0.06,0.79,0.192c0.232,0.126,0.405,0.308,0.52,0.542c0.073,0.142,0.122,0.282,0.14,0.442
							c0.025,0.158,0.038,0.361,0.038,0.605v2.077c0,0.223-0.053,0.389-0.161,0.508c-0.098,0.112-0.23,0.169-0.398,0.169
							c-0.165,0-0.297-0.057-0.399-0.173c-0.109-0.119-0.156-0.288-0.156-0.504V65.68c0-0.374-0.053-0.655-0.16-0.85
							c-0.099-0.194-0.301-0.292-0.608-0.292c-0.194,0-0.383,0.06-0.54,0.18c-0.167,0.116-0.285,0.278-0.361,0.49
							c-0.055,0.164-0.081,0.473-0.081,0.931v1.396c0,0.225-0.056,0.398-0.155,0.51c-0.107,0.112-0.244,0.169-0.41,0.169
							c-0.16,0-0.297-0.059-0.398-0.173c-0.103-0.119-0.158-0.288-0.158-0.506v-3.228c0-0.212,0.048-0.374,0.144-0.472
							c0.091-0.106,0.217-0.158,0.379-0.158c0.099,0,0.185,0.021,0.265,0.064c0.076,0.05,0.14,0.115,0.19,0.215
							C129.188,64.044,129.209,64.16,129.209,64.293"/>
						<path fill="#F26F21" d="M137.256,66.831c0,0.14-0.041,0.288-0.125,0.444c-0.081,0.159-0.212,0.313-0.38,0.454
							c-0.169,0.145-0.386,0.259-0.644,0.348c-0.257,0.084-0.549,0.128-0.873,0.128c-0.692,0-1.231-0.201-1.617-0.599
							c-0.387-0.401-0.579-0.945-0.579-1.622c0-0.458,0.088-0.864,0.265-1.212c0.174-0.351,0.431-0.625,0.768-0.813
							c0.335-0.196,0.738-0.292,1.201-0.292c0.292,0,0.562,0.046,0.797,0.128c0.243,0.087,0.448,0.189,0.614,0.329
							c0.17,0.128,0.295,0.274,0.387,0.428c0.089,0.15,0.132,0.288,0.132,0.42c0,0.135-0.051,0.251-0.15,0.343
							c-0.099,0.094-0.221,0.136-0.362,0.136c-0.095,0-0.169-0.021-0.232-0.069c-0.062-0.048-0.132-0.126-0.205-0.23
							c-0.138-0.208-0.28-0.362-0.428-0.465c-0.147-0.103-0.339-0.16-0.567-0.16c-0.332,0-0.598,0.131-0.795,0.389
							c-0.203,0.258-0.307,0.606-0.307,1.055c0,0.212,0.03,0.403,0.082,0.58c0.048,0.178,0.125,0.326,0.225,0.452
							c0.096,0.121,0.217,0.215,0.354,0.281c0.139,0.062,0.294,0.094,0.455,0.094c0.226,0,0.418-0.051,0.581-0.151
							c0.157-0.103,0.301-0.264,0.422-0.473c0.068-0.128,0.14-0.229,0.218-0.299c0.085-0.069,0.176-0.103,0.291-0.103
							c0.138,0,0.247,0.054,0.344,0.15C137.21,66.609,137.256,66.713,137.256,66.831"/>
						<path fill="#F26F21" d="M141.348,66.219h-2.186c0,0.252,0.056,0.479,0.15,0.672c0.104,0.19,0.237,0.336,0.402,0.433
							c0.162,0.101,0.343,0.153,0.543,0.153c0.136,0,0.256-0.016,0.367-0.053c0.112-0.025,0.217-0.077,0.325-0.145
							c0.101-0.066,0.195-0.141,0.283-0.215c0.086-0.075,0.2-0.178,0.335-0.31c0.059-0.051,0.145-0.072,0.251-0.072
							c0.113,0,0.203,0.028,0.276,0.094c0.074,0.061,0.106,0.149,0.106,0.266c0,0.097-0.041,0.22-0.122,0.352
							c-0.079,0.134-0.198,0.266-0.353,0.388c-0.162,0.126-0.362,0.228-0.604,0.31c-0.24,0.087-0.517,0.121-0.834,0.121
							c-0.718,0-1.275-0.203-1.669-0.61c-0.398-0.411-0.597-0.964-0.597-1.663c0-0.332,0.047-0.641,0.144-0.916
							c0.101-0.286,0.243-0.53,0.428-0.729c0.191-0.203,0.423-0.359,0.7-0.464c0.277-0.109,0.579-0.162,0.915-0.162
							c0.438,0,0.81,0.091,1.124,0.272c0.309,0.187,0.541,0.427,0.7,0.715c0.159,0.294,0.231,0.588,0.231,0.894
							c0,0.28-0.077,0.466-0.24,0.546C141.868,66.179,141.638,66.219,141.348,66.219 M139.162,65.586h2.023
							c-0.025-0.386-0.129-0.666-0.306-0.856c-0.18-0.189-0.412-0.285-0.703-0.285c-0.284,0-0.509,0.096-0.687,0.287
							C139.309,64.924,139.199,65.21,139.162,65.586"/>
						<path fill="#F26F21" d="M147.044,67.535v-4.842c0-0.225,0.051-0.389,0.152-0.505c0.098-0.114,0.23-0.17,0.401-0.17
							c0.168,0,0.306,0.053,0.408,0.166c0.103,0.114,0.155,0.284,0.155,0.509v4.842c0,0.225-0.051,0.398-0.155,0.51
							c-0.107,0.112-0.242,0.169-0.408,0.169c-0.163,0-0.298-0.059-0.4-0.173C147.096,67.92,147.044,67.751,147.044,67.535"/>
						<path fill="#F26F21" d="M153.08,65.427c-0.18,0.208-0.381,0.372-0.604,0.479s-0.468,0.164-0.74,0.164
							c-0.254,0-0.494-0.052-0.711-0.148c-0.225-0.1-0.42-0.242-0.58-0.42c-0.164-0.184-0.285-0.388-0.375-0.628
							c-0.086-0.24-0.128-0.49-0.128-0.748c0-0.283,0.048-0.549,0.144-0.799c0.1-0.256,0.239-0.472,0.424-0.66
							c0.181-0.186,0.4-0.326,0.652-0.431c0.25-0.104,0.534-0.153,0.834-0.153c0.357,0,0.667,0.06,0.943,0.189
							c0.277,0.131,0.504,0.313,0.696,0.557c0.188,0.242,0.332,0.552,0.43,0.92c0.104,0.373,0.152,0.793,0.152,1.264
							c0,0.521-0.051,0.985-0.159,1.382c-0.102,0.402-0.262,0.738-0.464,1.009c-0.203,0.27-0.446,0.47-0.73,0.605
							c-0.285,0.13-0.604,0.194-0.965,0.194c-0.354,0-0.66-0.064-0.925-0.201c-0.263-0.137-0.461-0.299-0.598-0.505
							c-0.136-0.201-0.203-0.396-0.203-0.58c0-0.108,0.044-0.216,0.127-0.305c0.084-0.089,0.194-0.138,0.323-0.138
							c0.119,0,0.229,0.038,0.324,0.102c0.098,0.068,0.166,0.169,0.219,0.305c0.059,0.162,0.158,0.294,0.294,0.393
							c0.144,0.1,0.299,0.148,0.471,0.148c0.156,0,0.304-0.041,0.444-0.117c0.136-0.082,0.258-0.191,0.358-0.338
							C152.921,66.681,153.042,66.165,153.08,65.427 M152.983,64.176c0-0.191-0.021-0.358-0.073-0.516
							c-0.051-0.153-0.122-0.293-0.211-0.405c-0.09-0.116-0.201-0.203-0.325-0.27c-0.129-0.063-0.267-0.098-0.416-0.098
							c-0.263,0-0.482,0.107-0.664,0.331c-0.177,0.223-0.265,0.517-0.265,0.881c0,0.366,0.088,0.654,0.265,0.865
							c0.183,0.217,0.408,0.327,0.686,0.327c0.172,0,0.331-0.046,0.488-0.134c0.154-0.088,0.278-0.217,0.375-0.386
							C152.937,64.604,152.983,64.406,152.983,64.176"/>
						<path fill="#F26F21" d="M158.058,65.427c-0.185,0.208-0.384,0.372-0.604,0.479c-0.221,0.107-0.468,0.164-0.738,0.164
							c-0.257,0-0.498-0.052-0.718-0.148c-0.221-0.1-0.416-0.242-0.578-0.42c-0.158-0.184-0.286-0.388-0.371-0.628
							c-0.089-0.24-0.134-0.49-0.134-0.748c0-0.283,0.048-0.549,0.147-0.799c0.1-0.256,0.24-0.472,0.421-0.66
							c0.183-0.186,0.4-0.326,0.65-0.431c0.255-0.104,0.535-0.153,0.836-0.153c0.354,0,0.668,0.06,0.944,0.189
							c0.273,0.131,0.506,0.313,0.693,0.557c0.192,0.242,0.335,0.552,0.435,0.92c0.103,0.373,0.151,0.793,0.151,1.264
							c0,0.521-0.056,0.985-0.157,1.382c-0.107,0.402-0.263,0.738-0.465,1.009c-0.208,0.27-0.447,0.47-0.73,0.605
							c-0.287,0.13-0.607,0.194-0.965,0.194c-0.357,0-0.662-0.064-0.924-0.201c-0.262-0.137-0.462-0.299-0.599-0.505
							c-0.134-0.201-0.205-0.396-0.205-0.58c0-0.108,0.045-0.216,0.128-0.305c0.085-0.089,0.192-0.138,0.325-0.138
							c0.117,0,0.225,0.038,0.32,0.102c0.096,0.068,0.168,0.169,0.218,0.305c0.058,0.162,0.158,0.294,0.297,0.393
							c0.14,0.1,0.295,0.148,0.473,0.148c0.154,0,0.303-0.041,0.442-0.117c0.136-0.082,0.257-0.191,0.354-0.338
							C157.899,66.681,158.021,66.165,158.058,65.427 M157.963,64.176c0-0.191-0.026-0.358-0.077-0.516
							c-0.049-0.153-0.118-0.293-0.211-0.405c-0.093-0.116-0.202-0.203-0.329-0.27c-0.129-0.063-0.264-0.098-0.416-0.098
							c-0.255,0-0.48,0.107-0.656,0.331c-0.185,0.223-0.273,0.517-0.273,0.881c0,0.366,0.088,0.654,0.273,0.865
							c0.176,0.217,0.407,0.327,0.682,0.327c0.169,0,0.332-0.046,0.485-0.134c0.151-0.088,0.281-0.217,0.374-0.386
							C157.914,64.604,157.963,64.406,157.963,64.176"/>
						<path fill="#F26F21" d="M164.258,66.002c-0.127-0.058-0.297-0.086-0.508-0.086h-0.172v-3.163c0-0.476-0.206-0.713-0.624-0.713
							c-0.128,0-0.241,0.043-0.328,0.127c-0.093,0.088-0.211,0.228-0.349,0.416l-2.168,2.9c-0.062,0.078-0.109,0.145-0.149,0.197
							c-0.046,0.057-0.082,0.113-0.123,0.171c-0.038,0.06-0.065,0.117-0.082,0.171c-0.021,0.051-0.028,0.107-0.028,0.158
							c0,0.198,0.061,0.36,0.192,0.473c0.127,0.121,0.322,0.181,0.581,0.181h2.052v0.762c0,0.203,0.047,0.355,0.142,0.461
							c0.095,0.105,0.22,0.157,0.371,0.157c0.153,0,0.277-0.047,0.371-0.15c0.091-0.103,0.141-0.26,0.141-0.468v-0.765h0.25
							c0.204,0,0.362-0.031,0.465-0.106c0.101-0.071,0.158-0.189,0.158-0.346C164.451,66.187,164.384,66.057,164.258,66.002
							 M162.118,65.901c-0.902,0-0.902-1.393,0-1.393C163.018,64.508,163.018,65.901,162.118,65.901"/>
						<path fill="#F26F21" d="M161.953,64.353c0.048-0.427,0.516-0.427,0.516-0.89c0,0.463-0.468,0.463-0.548,0.936"/>
					</g>
				</g>
				<g>
					<ellipse fill="#FFFFFF" stroke="#69C8C9" stroke-width="0.4716" cx="166.145" cy="30.997" rx="3.581" ry="3.382"/>
				</g>
				<g>
					<path fill="#69C8C9" d="M164.658,32.838v-3.645h1.55c0.389,0,0.673,0.032,0.85,0.099c0.176,0.065,0.317,0.183,0.424,0.35
						c0.106,0.167,0.157,0.357,0.157,0.574c0,0.273-0.08,0.499-0.239,0.676c-0.162,0.179-0.4,0.292-0.723,0.338
						c0.16,0.093,0.292,0.193,0.396,0.305c0.102,0.112,0.242,0.309,0.419,0.591l0.444,0.711h-0.879l-0.532-0.793
						c-0.189-0.283-0.318-0.462-0.388-0.536c-0.068-0.073-0.142-0.125-0.222-0.151c-0.078-0.028-0.201-0.041-0.372-0.041h-0.147
						v1.521H164.658z M165.395,30.735h0.544c0.353,0,0.574-0.015,0.662-0.045c0.089-0.029,0.156-0.081,0.207-0.153
						c0.049-0.073,0.073-0.165,0.073-0.274c0-0.122-0.031-0.222-0.099-0.296c-0.064-0.076-0.157-0.124-0.275-0.143
						c-0.06-0.009-0.238-0.013-0.538-0.013h-0.574V30.735z"/>
				</g>
			</g>
		</g>
	</g>
</g>
</svg>
